<svg height="512px" viewBox="0  0 512 512" width="512px" xmlns="http://www.w3.org/2000/svg">
    <defs>
        <filter id="whiteOutline">
            <feMorphology in="SourceAlpha" result="MORPH" operator="dilate" radius="2"/>
            <feColorMatrix in="MORPH" result="WHITENED" type="matrix" values="-1 0 0 1 0, 0 -1 0 1 0, 0 0 -1 1 0, 0 0 0 1 0"/>
            <feMerge>
                <feMergeNode in="WHITENED"/>
                <feMergeNode in="SourceGraphic"/>
            </feMerge>
        </filter>
    </defs>
    <mask id="mask">
        <path style="transform: scale(0.43); transform-origin: center;" id="triangle" fill="white" d="m500.628906 311.332031-27.960937-16.144531c-30.160157-17.414062-30.1875-60.949219 0-78.375l27.960937-16.144531c7.171875-4.144531 9.628906-13.316407 5.488282-20.488281l-60.242188-104.355469c-4.136719-7.167969-13.316406-9.632813-20.492188-5.492188l-27.960937 16.144531c-30.15625 17.410157-67.863281-4.324218-67.863281-39.1875v-32.289062c0-8.285156-6.714844-15-15-15h-120.488282c-8.28125 0-15 6.714844-15 15v32.289062c0 34.828126-37.671874 56.617188-67.863281 39.1875l-27.960937-16.144531c-7.167969-4.140625-16.347656-1.683593-20.492188 5.492188l-60.242187 104.355469c-4.140625 7.171874-1.683594 16.347656 5.488281 20.488281l27.960938 16.144531c30.160156 17.414062 30.1875 60.949219 0 78.375l-27.957032 16.144531c-7.175781 4.144531-9.632812 13.316407-5.492187 20.488281l60.242187 104.355469c4.136719 7.167969 13.316406 9.636719 20.492188 5.492188l27.960937-16.144531c30.152344-17.414063 67.863281 4.320312 67.863281 39.1875v32.289062c0 8.285156 6.714844 15 15 15h120.484376c8.285156 0 15-6.714844 15-15v-32.289062c0-34.820313 37.671874-56.621094 67.867187-39.1875l27.960937 16.144531c7.167969 4.140625 16.347657 1.683593 20.488282-5.492188l60.246094-104.355469c4.140624-7.171874 1.683593-16.34375-5.488282-20.488281zm-246.3125 49.667969c-57.894531 0-104.992187-47.101562-104.992187-105s47.097656-105 104.992187-105c57.890625 0 104.988282 47.101562 104.988282 105s-47.097657 105-104.988282 105zm0 0"/>
    </mask>
    <mask id="bg-mask">
        <path style="transform: scale(0.43); transform-origin: center;" id="triangle" fill="white" d="m500.628906 311.332031-27.960937-16.144531c-30.160157-17.414062-30.1875-60.949219 0-78.375l27.960937-16.144531c7.171875-4.144531 9.628906-13.316407 5.488282-20.488281l-60.242188-104.355469c-4.136719-7.167969-13.316406-9.632813-20.492188-5.492188l-27.960937 16.144531c-30.15625 17.410157-67.863281-4.324218-67.863281-39.1875v-32.289062c0-8.285156-6.714844-15-15-15h-120.488282c-8.28125 0-15 6.714844-15 15v32.289062c0 34.828126-37.671874 56.617188-67.863281 39.1875l-27.960937-16.144531c-7.167969-4.140625-16.347656-1.683593-20.492188 5.492188l-60.242187 104.355469c-4.140625 7.171874-1.683594 16.347656 5.488281 20.488281l27.960938 16.144531c30.160156 17.414062 30.1875 60.949219 0 78.375l-27.957032 16.144531c-7.175781 4.144531-9.632812 13.316407-5.492187 20.488281l60.242187 104.355469c4.136719 7.167969 13.316406 9.636719 20.492188 5.492188l27.960937-16.144531c30.152344-17.414063 67.863281 4.320312 67.863281 39.1875v32.289062c0 8.285156 6.714844 15 15 15h120.484376c8.285156 0 15-6.714844 15-15v-32.289062c0-34.820313 37.671874-56.621094 67.867187-39.1875l27.960937 16.144531c7.167969 4.140625 16.347657 1.683593 20.488282-5.492188l60.246094-104.355469c4.140624-7.171874 1.683593-16.34375-5.488282-20.488281zm-246.3125 49.667969c-57.894531 0-104.992187-47.101562-104.992187-105s47.097656-105 104.992187-105c57.890625 0 104.988282 47.101562 104.988282 105s-47.097657 105-104.988282 105zm0 0"/>
    </mask>
    <g mask="url(#bg-mask)" style="transform: scale(2.27); transform-origin: center;">
        <path style="stroke:none;fill-rule:nonzero;fill:#ef8a57;fill-opacity:1" d="M 233.730469 643.617188 L 230.183594 641.617188 L 695.613281 -184.917969 L 699.160156 -182.921875 "/>
        <path style="stroke:none;fill-rule:nonzero;fill:#ef8a57;fill-opacity:1" d="M 230.183594 641.617188 L 226.640625 639.621094 L 692.066406 -186.914062 L 695.613281 -184.917969 "/>
        <path style="stroke:none;fill-rule:nonzero;fill:#ef8a57;fill-opacity:1" d="M 226.636719 639.621094 L 223.09375 637.625 L 688.519531 -188.910156 L 692.066406 -186.914062 Z M 226.636719 639.621094 "/>
        <path style="stroke:none;fill-rule:nonzero;fill:#ef8a57;fill-opacity:1" d="M 223.09375  637.625 L 219.546875 635.628906 L 684.976562 -190.90625 L 688.519531 -188.910156 Z M 223.09375 637.625 "/>
        <path style="stroke:none;fill-rule:nonzero;fill:#ef8a57;fill-opacity:1" d="M 219.546875 635.628906 L 216 633.628906 L 681.429688 -192.90625 L 684.976562 -190.90625 Z M 219.546875 635.628906 "/>
        <path style="stroke:none;fill-rule:nonzero;fill:#ef8a57;fill-opacity:1" d="M 216        633.628906 L 212.453125 631.632812 L 677.878906 -194.902344 L 681.429688 -192.90625 Z M 216 633.628906 "/>
        <path style="stroke:none;fill-rule:nonzero;fill:#ef8a57;fill-opacity:1" d="M 212.453125 631.632812 L 208.90625 629.636719 L 674.332031 -196.898438 L 677.878906 -194.902344 Z M 212.453125 631.632812 "/>
        <path style="stroke:none;fill-rule:nonzero;fill:#ef8a57;fill-opacity:1" d="M 208.90625  629.636719 L 205.359375 627.640625 L 670.789062 -198.894531 L 674.332031 -196.898438 Z M 208.90625 629.636719 "/>
        <path style="stroke:none;fill-rule:nonzero;fill:#ef8a57;fill-opacity:1" d="M 205.359375 627.640625 L 201.8125 625.644531 L 667.242188 -200.890625 L 670.789062 -198.894531 Z M 205.359375 627.640625 "/>
        <path style="stroke:none;fill-rule:nonzero;fill:#ef8a57;fill-opacity:1" d="M 201.8125   625.644531 L 198.269531 623.644531 L 663.695312 -202.886719 L 667.242188 -200.890625 Z M 201.8125 625.644531 "/>
        <path style="stroke:none;fill-rule:nonzero;fill:#ef8a57;fill-opacity:1" d="M 198.269531 623.644531 L 194.722656 621.648438 L 660.148438 -204.886719 L 663.695312 -202.886719 Z M 198.269531 623.644531 "/>
        <path style="stroke:none;fill-rule:nonzero;fill:#ef8a57;fill-opacity:1" d="M 194.722656 621.648438 L 191.175781 619.652344 L 656.601562 -206.882812 L 660.148438 -204.886719 Z M 194.722656 621.648438 "/>
        <path style="stroke:none;fill-rule:nonzero;fill:#ef8a57;fill-opacity:1" d="M 191.175781 619.652344 L 187.628906 617.65625 L 653.054688 -208.878906 L 656.601562 -206.882812 Z M 191.175781 619.652344 "/>
        <path style="stroke:none;fill-rule:nonzero;fill:#ef8a57;fill-opacity:1" d="M 187.628906 617.65625 L 184.082031 615.65625 L 649.511719 -210.875 L 653.054688 -208.878906 Z M 187.628906 617.65625 "/>
        <path style="stroke:none;fill-rule:nonzero;fill:#ef8a57;fill-opacity:1" d="M 184.082031 615.65625 L 180.535156 613.660156 L 645.964844 -212.875 L 649.511719 -210.875 Z M 184.082031 615.65625 "/>
        <path style="stroke:none;fill-rule:nonzero;fill:#ef8a57;fill-opacity:1" d="M 180.535156 613.660156 L 176.988281 611.664062 L 642.417969 -214.875 L 645.964844 -212.875 Z M 180.535156 613.660156 "/>
        <path style="stroke:none;fill-rule:nonzero;fill:#ef8a57;fill-opacity:1" d="M 176.988281 611.664062 L 173.441406 609.667969 L 638.871094 -216.871094 L 642.417969 -214.875 Z M 176.988281 611.664062 "/>
        <path style="stroke:none;fill-rule:nonzero;fill:#ef8a57;fill-opacity:1" d="M 173.441406 609.667969 L 169.898438 607.671875 L 635.324219 -218.867188 L 638.871094 -216.871094 Z M 173.441406 609.667969 "/>
        <path style="stroke:none;fill-rule:nonzero;fill:#ef8a57;fill-opacity:1" d="M 169.898438 607.671875 L 166.351562 605.671875 L 631.777344 -220.863281 L 635.324219 -218.867188 Z M 169.898438 607.671875 "/>
        <path style="stroke:none;fill-rule:nonzero;fill:#ef8a57;fill-opacity:1" d="M 166.351562 605.671875 L 162.804688 603.675781 L 628.234375 -222.859375 L 631.777344 -220.863281 Z M 166.351562 605.671875 "/>
        <path style="stroke:none;fill-rule:nonzero;fill:#ef8a57;fill-opacity:1" d="M 162.804688 603.675781 L 159.257812 601.679688 L 624.6875 -224.859375 L 628.234375 -222.859375 Z M 162.804688 603.675781 "/>
        <path style="stroke:none;fill-rule:nonzero;fill:#ef8a57;fill-opacity:1" d="M 159.257812 601.679688 L 155.710938 599.683594 L 621.136719 -226.855469 L 624.6875 -224.859375 Z M 159.257812 601.679688 "/>
        <path style="stroke:none;fill-rule:nonzero;fill:#ef8a57;fill-opacity:1" d="M 155.710938 599.683594 L 152.164062 597.683594 L 617.589844 -228.851562 L 621.136719 -226.855469 Z M 155.710938 599.683594 "/>
        <path style="stroke:none;fill-rule:nonzero;fill:#ef8a57;fill-opacity:1" d="M 152.164062 597.683594 L 148.617188 595.6875 L 614.046875 -230.847656 L 617.589844 -228.851562 Z M 152.164062 597.683594 "/>
        <path style="stroke:none;fill-rule:nonzero;fill:#ef8a57;fill-opacity:1" d="M 148.617188 595.6875 L 145.070312 593.691406 L 610.5 -232.84375 L 614.046875 -230.847656 Z M 148.617188 595.6875 "/>
        <path style="stroke:none;fill-rule:nonzero;fill:#ef8a57;fill-opacity:1" d="M 145.070312 593.691406 L 141.527344 591.695312 L 606.953125 -234.839844 L 610.5 -232.84375 Z M 145.070312 593.691406 "/>
        <path style="stroke:none;fill-rule:nonzero;fill:#ef8a57;fill-opacity:1" d="M 141.527344 591.695312 L 137.980469 589.699219 L 603.410156 -236.839844 L 606.953125 -234.839844 Z M 141.527344 591.695312 "/>
        <path style="stroke:none;fill-rule:nonzero;fill:#ef8a57;fill-opacity:1" d="M 137.980469 589.699219 L 134.433594 587.699219 L 599.859375 -238.835938 L 603.410156 -236.839844 Z M 137.980469 589.699219 "/>
        <path style="stroke:none;fill-rule:nonzero;fill:#ef8a57;fill-opacity:1" d="M 134.433594 587.699219 L 130.886719 585.703125 L 596.3125 -240.832031 L 599.859375 -238.835938 Z M 134.433594 587.699219 "/>
        <path style="stroke:none;fill-rule:nonzero;fill:#ef8a57;fill-opacity:1" d="M 130.886719 585.703125 L 127.339844 583.707031 L 592.769531 -242.828125 L 596.3125 -240.832031 Z M 130.886719 585.703125 "/>
        <path style="stroke:none;fill-rule:nonzero;fill:#ef8a57;fill-opacity:1" d="M 127.339844 583.707031 L 123.792969 581.710938 L 589.222656 -244.824219 L 592.769531 -242.828125 Z M 127.339844 583.707031 "/>
        <path style="stroke:none;fill-rule:nonzero;fill:#ef8a57;fill-opacity:1" d="M 123.792969 581.710938 L 120.246094 579.710938 L 585.675781 -246.824219 L 589.222656 -244.824219 Z M 123.792969 581.710938 "/>
        <path style="stroke:none;fill-rule:nonzero;fill:#ef8a57;fill-opacity:1" d="M 120.246094 579.710938 L 116.703125 577.714844 L 582.125 -248.820312 L 585.675781 -246.824219 Z M 120.246094 579.710938 "/>
        <path style="stroke:none;fill-rule:nonzero;fill:#ef8a57;fill-opacity:1" d="M 116.703125 577.714844 L 113.15625 575.71875 L 578.582031 -250.816406 L 582.125 -248.820312 Z M 116.703125 577.714844 "/>
        <path style="stroke:none;fill-rule:nonzero;fill:#ef8a57;fill-opacity:1" d="M 113.15625  575.71875 L 109.609375 573.722656 L 575.035156 -252.8125 L 578.582031 -250.816406 Z M 113.15625 575.71875 "/>
        <path style="stroke:none;fill-rule:nonzero;fill:#ef8a57;fill-opacity:1" d="M 109.609375 573.722656 L 106.0625 571.722656 L 571.488281 -254.808594 L 575.035156 -252.8125 Z M 109.609375 573.722656 "/>
        <path style="stroke:none;fill-rule:nonzero;fill:#ef8a57;fill-opacity:1" d="M 106.0625   571.722656 L 102.515625 569.726562 L 567.945312 -256.804688 L 571.488281 -254.808594 Z M 106.0625 571.722656 "/>
        <path style="stroke:none;fill-rule:nonzero;fill:#ef8a57;fill-opacity:1" d="M 102.515625 569.726562 L 98.96875 567.730469 L 564.398438 -258.808594 L 567.945312 -256.804688 Z M 102.515625 569.726562 "/>
        <path style="stroke:none;fill-rule:nonzero;fill:#ef8a57;fill-opacity:1" d="M 98.96875   567.730469 L 95.421875 565.734375 L 560.847656 -260.804688 L 564.398438 -258.808594 Z M 98.96875 567.730469 "/>
        <path style="stroke:none;fill-rule:nonzero;fill:#ef8a57;fill-opacity:1" d="M 95.421875  565.734375 L 91.875 563.734375 L 557.304688 -262.800781 L 560.847656 -260.804688 Z M 95.421875 565.734375 "/>
        <path style="stroke:none;fill-rule:nonzero;fill:#ef8a57;fill-opacity:1" d="M 91.875     563.734375 L 88.332031 561.738281 L 553.757812 -264.796875 L 557.304688 -262.800781 Z M 91.875 563.734375 "/>
        <path style="stroke:none;fill-rule:nonzero;fill:#ef8a57;fill-opacity:1" d="M 88.332031  561.738281 L 84.785156 559.742188 L 550.210938 -266.792969 L 553.757812 -264.796875 Z M 88.332031 561.738281 "/>
        <path style="stroke:none;fill-rule:nonzero;fill:#ef8a57;fill-opacity:1" d="M 84.785156  559.742188 L 81.238281 557.746094 L 546.667969 -268.792969 L 550.210938 -266.792969 Z M 84.785156 559.742188 "/>
        <path style="stroke:none;fill-rule:nonzero;fill:#ef8a57;fill-opacity:1" d="M 81.238281  557.746094 L 77.691406 555.75 L 543.121094 -270.789062 L 546.667969 -268.792969 Z M 81.238281 557.746094 "/>
        <path style="stroke:none;fill-rule:nonzero;fill:#ef8a57;fill-opacity:1" d="M 77.691406  555.75 L 74.144531 553.75 L 539.570312 -272.785156 L 543.121094 -270.789062 Z M 77.691406 555.75 "/>
        <path style="stroke:none;fill-rule:nonzero;fill:#ef8a57;fill-opacity:1" d="M 74.144531  553.75 L 70.597656 551.753906 L 536.027344 -274.78125 L 539.570312 -272.785156 Z M 74.144531 553.75 "/>
        <path style="stroke:none;fill-rule:nonzero;fill:#ef8a57;fill-opacity:1" d="M 70.597656  551.753906 L 67.050781 549.757812 L 532.480469 -276.777344 L 536.027344 -274.78125 Z M 70.597656 551.753906 "/>
        <path style="stroke:none;fill-rule:nonzero;fill:#ef8a57;fill-opacity:1" d="M 67.050781  549.757812 L 63.503906 547.761719 L 528.933594 -278.777344 L 532.480469 -276.777344 Z M 67.050781 549.757812 "/>
        <path style="stroke:none;fill-rule:nonzero;fill:#ef8a57;fill-opacity:1" d="M 63.503906  547.761719 L 59.960938 545.761719 L 525.390625 -280.773438 L 528.933594 -278.777344 Z M 63.503906 547.761719 "/>
        <path style="stroke:none;fill-rule:nonzero;fill:#ef8a57;fill-opacity:1" d="M 59.960938  545.761719 L 56.414062 543.765625 L 521.839844 -282.769531 L 525.390625 -280.773438 Z M 59.960938 545.761719 "/>
        <path style="stroke:none;fill-rule:nonzero;fill:#ef8a57;fill-opacity:1" d="M 56.414062  543.765625 L 52.867188 541.769531 L 518.292969 -284.765625 L 521.839844 -282.769531 Z M 56.414062 543.765625 "/>
        <path style="stroke:none;fill-rule:nonzero;fill:#ef8a57;fill-opacity:1" d="M 52.867188  541.769531 L 49.320312 539.773438 L 514.746094 -286.761719 L 518.292969 -284.765625 Z M 52.867188 541.769531 "/>
        <path style="stroke:none;fill-rule:nonzero;fill:#ef8a57;fill-opacity:1" d="M 49.320312  539.773438 L 45.773438 537.777344 L 511.203125 -288.757812 L 514.746094 -286.761719 Z M 49.320312 539.773438 "/>
        <path style="stroke:none;fill-rule:nonzero;fill:#ef8a57;fill-opacity:1" d="M 45.773438  537.777344 L 42.226562 535.777344 L 507.65625 -290.757812 L 511.203125 -288.757812 Z M 45.773438 537.777344 "/>
        <path style="stroke:none;fill-rule:nonzero;fill:#ef8a57;fill-opacity:1" d="M 42.226562  535.777344 L 38.679688 533.78125 L 504.109375 -292.753906 L 507.65625 -290.757812 Z M 42.226562 535.777344 "/>
        <path style="stroke:none;fill-rule:nonzero;fill:#ef8a57;fill-opacity:1" d="M 38.679688  533.78125 L 35.136719 531.785156 L 500.5625 -294.75 L 504.109375 -292.753906 Z M 38.679688 533.78125 "/>
        <path style="stroke:none;fill-rule:nonzero;fill:#ef8a57;fill-opacity:1" d="M 35.136719  531.785156 L 31.589844 529.789062 L 497.015625 -296.746094 L 500.5625 -294.75 Z M 35.136719 531.785156 "/>
        <path style="stroke:none;fill-rule:nonzero;fill:#ef8a57;fill-opacity:1" d="M 31.589844  529.789062 L 28.042969 527.789062 L 493.46875 -298.742188 L 497.015625 -296.746094 Z M 31.589844 529.789062 "/>
        <path style="stroke:none;fill-rule:nonzero;fill:#ef8a57;fill-opacity:1" d="M 28.042969  527.789062 L 24.496094 525.792969 L 489.925781 -300.742188 L 493.46875 -298.742188 Z M 28.042969 527.789062 "/>
        <path style="stroke:none;fill-rule:nonzero;fill:#ef8a57;fill-opacity:1" d="M 24.496094  525.792969 L 20.949219 523.796875 L 486.378906 -302.738281 L 489.925781 -300.742188 Z M 24.496094 525.792969 "/>
        <path style="stroke:none;fill-rule:nonzero;fill:#ef8a57;fill-opacity:1" d="M 20.949219  523.796875 L 17.402344 521.800781 L 482.828125 -304.738281 L 486.378906 -302.738281 Z M 20.949219 523.796875 "/>
        <path style="stroke:none;fill-rule:nonzero;fill:#ef8a57;fill-opacity:1" d="M 17.402344  521.800781 L 13.855469 519.800781 L 479.28125 -306.734375 L 482.828125 -304.738281 Z M 17.402344 521.800781 "/>
        <path style="stroke:none;fill-rule:nonzero;fill:#ef8a57;fill-opacity:1" d="M 13.855469  519.800781 L 10.308594 517.804688 L 475.738281 -308.730469 L 479.28125 -306.734375 Z M 13.855469 519.800781 "/>
        <path style="stroke:none;fill-rule:nonzero;fill:#ef8a57;fill-opacity:1" d="M 10.308594  517.804688 L 6.765625 515.808594 L 472.191406 -310.726562 L 475.738281 -308.730469 Z M 10.308594 517.804688 "/>
        <path style="stroke:none;fill-rule:nonzero;fill:#ef8a57;fill-opacity:1" d="M 6.765625   515.808594 L 3.21875 513.8125 L 468.644531 -312.726562 L 472.191406 -310.726562 Z M 6.765625 515.808594 "/>
        <path style="stroke:none;fill-rule:nonzero;fill:#ef8a57;fill-opacity:1" d="M 3.21875 513.8125 L -0.328125 511.816406 L 465.101562 -314.722656 L 468.644531 -312.726562 Z M 3.21875 513.8125 "/>
        <path style="stroke:none;fill-rule:nonzero;fill:#ef8a57;fill-opacity:1" d="M -0.328125 511.816406 L -3.875 509.816406 L 461.550781 -316.71875 L 465.101562 -314.722656 Z M -0.328125 511.816406 "/>
        <path style="stroke:none;fill-rule:nonzero;fill:#ef8a57;fill-opacity:1" d="M -3.875 509.816406 L -7.421875 507.820312 L 458.003906 -318.714844 L 461.550781 -316.71875 Z M -3.875 509.816406 "/>
        <path style="stroke:none;fill-rule:nonzero;fill:#ef8a57;fill-opacity:1" d="M -7.421875 507.820312 L -10.96875 505.824219 L 454.460938 -320.710938 L 458.003906 -318.714844 Z M -7.421875 507.820312 "/>
        <path style="stroke:none;fill-rule:nonzero;fill:#ef8a57;fill-opacity:1" d="M -10.96875 505.824219 L -14.515625 503.828125 L 450.914062 -322.710938 L 454.460938 -320.710938 Z M -10.96875 505.824219 "/>
        <path style="stroke:none;fill-rule:nonzero;fill:#ef8a57;fill-opacity:1" d="M -14.515625 503.828125 L -18.0625 501.828125 L 447.367188 -324.707031 L 450.914062 -322.710938 Z M -14.515625 503.828125 "/>
        <path style="stroke:none;fill-rule:nonzero;fill:#ef8a57;fill-opacity:1" d="M -18.0625 501.828125 L -21.605469 499.832031 L 443.820312 -326.703125 L 447.367188 -324.707031 Z M -18.0625 501.828125 "/>
        <path style="stroke:none;fill-rule:nonzero;fill:#ef8a57;fill-opacity:1" d="M -21.605469 499.832031 L -25.152344 497.835938 L 440.273438 -328.699219 L 443.820312 -326.703125 Z M -21.605469 499.832031 "/>
        <path style="stroke:none;fill-rule:nonzero;fill:#ef8a57;fill-opacity:1" d="M -25.152344 497.835938 L -28.699219 495.839844 L 436.726562 -330.695312 L 440.273438 -328.699219 Z M -25.152344 497.835938 "/>
        <path style="stroke:none;fill-rule:nonzero;fill:#ef8a57;fill-opacity:1" d="M -28.699219 495.839844 L -32.246094 493.84375 L 433.183594 -332.691406 L 436.726562 -330.695312 Z M -28.699219 495.839844 "/>
        <path style="stroke:none;fill-rule:nonzero;fill:#ef8a57;fill-opacity:1" d="M -32.246094 493.84375 L -35.792969 491.84375 L 429.636719 -334.691406 L 433.183594 -332.691406 Z M -32.246094 493.84375 "/>
        <path style="stroke:none;fill-rule:nonzero;fill:#ef8a57;fill-opacity:1" d="M -35.792969 491.84375 L -39.339844 489.847656 L 426.089844 -336.6875 L 429.636719 -334.691406 Z M -35.792969 491.84375 "/>
        <path style="stroke:none;fill-rule:nonzero;fill:#ef8a57;fill-opacity:1" d="M -39.339844 489.847656 L -42.886719 487.851562 L 422.542969 -338.683594 L 426.089844 -336.6875 Z M -39.339844 489.847656 "/>
        <path style="stroke:none;fill-rule:nonzero;fill:#ef8a57;fill-opacity:1" d="M -42.886719 487.851562 L -46.429688 485.855469 L 418.996094 -340.679688 L 422.542969 -338.683594 Z M -42.886719 487.851562 "/>
        <path style="stroke:none;fill-rule:nonzero;fill:#ef8a57;fill-opacity:1" d="M -46.429688 485.855469 L -49.976562 483.855469 L 415.449219 -342.675781 L 418.996094 -340.679688 Z M -46.429688 485.855469 "/>
        <path style="stroke:none;fill-rule:nonzero;fill:#ef8a57;fill-opacity:1" d="M -49.976562 483.855469 L -53.523438 481.859375 L 411.902344 -344.675781 L 415.449219 -342.675781 Z M -49.976562 483.855469 "/>
        <path style="stroke:none;fill-rule:nonzero;fill:#ef8a57;fill-opacity:1" d="M -53.523438 481.859375 L -57.070312 479.863281 L 408.355469 -346.671875 L 411.902344 -344.675781 Z M -53.523438 481.859375 "/>
        <path style="stroke:none;fill-rule:nonzero;fill:#ef8a57;fill-opacity:1" d="M -57.070312 479.863281 L -60.617188 477.867188 L 404.8125 -348.667969 L 408.355469 -346.671875 Z M -57.070312 479.863281 "/>
        <path style="stroke:none;fill-rule:nonzero;fill:#ef8a57;fill-opacity:1" d="M -60.617188 477.867188 L -64.164062 475.867188 L 401.265625 -350.664062 L 404.8125 -348.667969 Z M -60.617188 477.867188 "/>
        <path style="stroke:none;fill-rule:nonzero;fill:#ef8a57;fill-opacity:1" d="M -64.164062 475.867188 L -67.710938 473.871094 L 397.71875 -352.664062 L 401.265625 -350.664062 Z M -64.164062 475.867188 "/>
        <path style="stroke:none;fill-rule:nonzero;fill:#ef8a57;fill-opacity:1" d="M -67.710938 473.871094 L -71.257812 471.875 L 394.171875 -354.664062 L 397.71875 -352.664062 Z M -67.710938 473.871094 "/>
        <path style="stroke:none;fill-rule:nonzero;fill:#ef8a57;fill-opacity:1" d="M -71.257812 471.875 L -74.800781 469.878906 L 390.625 -356.660156 L 394.171875 -354.664062 Z M -71.257812 471.875 "/>
        <path style="stroke:none;fill-rule:nonzero;fill:#ef8a57;fill-opacity:1" d="M -74.800781 469.878906 L -78.347656 467.882812 L 387.078125 -358.65625 L 390.625 -356.660156 Z M -74.800781 469.878906 "/>
        <path style="stroke:none;fill-rule:nonzero;fill:#ef8a57;fill-opacity:1" d="M -78.347656 467.882812 L -81.894531 465.882812 L 383.53125 -360.652344 L 387.078125 -358.65625 Z M -78.347656 467.882812 "/>
        <path style="stroke:none;fill-rule:nonzero;fill:#ef8a57;fill-opacity:1" d="M -81.894531 465.882812 L -85.441406 463.886719 L 379.988281 -362.648438 L 383.53125 -360.652344 Z M -81.894531 465.882812 "/>
        <path style="stroke:none;fill-rule:nonzero;fill:#ef8a57;fill-opacity:1" d="M -85.441406 463.886719 L -88.988281 461.890625 L 376.441406 -364.644531 L 379.988281 -362.648438 Z M -85.441406 463.886719 "/>
        <path style="stroke:none;fill-rule:nonzero;fill:#ef8a57;fill-opacity:1" d="M -88.988281 461.890625 L -92.535156 459.894531 L 372.894531 -366.644531 L 376.441406 -364.644531 Z M -88.988281 461.890625 "/>
        <path style="stroke:none;fill-rule:nonzero;fill:#ef8a57;fill-opacity:1" d="M -92.535156 459.894531 L -96.082031 457.894531 L 369.347656 -368.640625 L 372.894531 -366.644531 Z M -92.535156 459.894531 "/>
        <path style="stroke:none;fill-rule:nonzero;fill:#ef8a57;fill-opacity:1" d="M -96.082031 457.894531 L -99.628906 455.898438 L 365.800781 -370.636719 L 369.347656 -368.640625 Z M -96.082031 457.894531 "/>
        <path style="stroke:none;fill-rule:nonzero;fill:#ef8a57;fill-opacity:1" d="M -99.628906 455.898438 L -103.171875 453.902344 L 362.253906 -372.632812 L 365.800781 -370.636719 Z M -99.628906 455.898438 "/>
        <path style="stroke:none;fill-rule:nonzero;fill:#ef8a57;fill-opacity:1" d="M -103.171875 453.902344 L -106.71875 451.90625 L 358.707031 -374.628906 L 362.253906 -372.632812 Z M -103.171875 453.902344 "/>
        <path style="stroke:none;fill-rule:nonzero;fill:#ef8a57;fill-opacity:1" d="M -106.71875 451.90625 L -110.265625 449.910156 L 355.160156 -376.628906 L 358.707031 -374.628906 Z M -106.71875 451.90625 "/>
        <path style="stroke:none;fill-rule:nonzero;fill:#ef8a57;fill-opacity:1" d="M -110.265625 449.910156 L -113.8125 447.910156 L 351.613281 -378.625 L 355.160156 -376.628906 Z M -110.265625 449.910156 "/>
        <path style="stroke:none;fill-rule:nonzero;fill:#ef8a57;fill-opacity:1" d="M -113.8125 447.910156 L -117.359375 445.914062 L 348.070312 -380.621094 L 351.613281 -378.625 Z M -113.8125 447.910156 "/>
        <path style="stroke:none;fill-rule:nonzero;fill:#ef8a57;fill-opacity:1" d="M -117.359375 445.914062 L -120.90625 443.917969 L 344.523438 -382.617188 L 348.070312 -380.621094 Z M -117.359375 445.914062 "/>
        <path style="stroke:none;fill-rule:nonzero;fill:#ef8a57;fill-opacity:1" d="M -120.90625 443.917969 L -124.453125 441.921875 L 340.976562 -384.613281 L 344.523438 -382.617188 Z M -120.90625 443.917969 "/>
        <path style="stroke:none;fill-rule:nonzero;fill:#ef8a57;fill-opacity:1" d="M -124.453125 441.921875 L -127.996094 439.921875 L 337.429688 -386.609375 L 340.976562 -384.613281 Z M -124.453125 441.921875 "/>
        <path style="stroke:none;fill-rule:nonzero;fill:#ef8a57;fill-opacity:1" d="M -127.996094 439.921875 L -131.542969 437.925781 L 333.882812 -388.609375 L 337.429688 -386.609375 Z M -127.996094 439.921875 "/>
        <path style="stroke:none;fill-rule:nonzero;fill:#ef8a57;fill-opacity:1" d="M -131.542969 437.925781 L -135.089844 435.929688 L 330.335938 -390.605469 L 333.882812 -388.609375 Z M -131.542969 437.925781 "/>
        <path style="stroke:none;fill-rule:nonzero;fill:#ef8a57;fill-opacity:1" d="M -135.089844 435.929688 L -138.636719 433.933594 L 326.789062 -392.601562 L 330.335938 -390.605469 Z M -135.089844 435.929688 "/>
        <path style="stroke:none;fill-rule:nonzero;fill:#ef8a57;fill-opacity:1" d="M -138.636719 433.933594 L -142.183594 431.9375 L 323.246094 -394.597656 L 326.789062 -392.601562 Z M -138.636719 433.933594 "/>
        <path style="stroke:none;fill-rule:nonzero;fill:#ef8a57;fill-opacity:1" d="M -142.183594 431.9375 L -145.730469 429.9375 L 319.699219 -396.59375 L 323.246094 -394.597656 Z M -142.183594 431.9375 "/>
        <path style="stroke:none;fill-rule:nonzero;fill:#ef8a57;fill-opacity:1" d="M -145.730469 429.9375 L -218.898438 388.734375 L 246.527344 -437.796875 L 319.699219 -396.59375 Z M -145.730469 429.9375 "/>
    </g>
    <g mask="url(#mask)" opacity="1" style="transform: scale(2.27); transform-origin: center;">
        <path style="stroke:none;fill-rule:nonzero;fill:#ef8a57;fill-opacity:1" d="M 60.648438 18.964844 L 16.195312 82.972656 L 73.996094 43.6875 L 60.644531 18.964844 L 60.648438 18.964844 "/>
        <path style="stroke:none;fill-rule:nonzero;fill:#ef7f48;fill-opacity:1" d="M 81.613281 0 L 73.996094 43.6875 L 129.773438 58.738281 L 94.601562 0 L 81.613281 0 "/>
        <path style="stroke:none;fill-rule:nonzero;fill:#ef8a57;fill-opacity:1" d="M 73.316406 0 L 60.644531 18.964844 L 73.996094 43.6875 L 81.613281 0 L 73.316406 0 "/>
        <path style="stroke:none;fill-rule:nonzero;fill:#ef7f48;fill-opacity:1" d="M 119.765625 32.515625 L 129.773438 58.738281 L 180.0625 63.675781 L 119.765625 32.511719 L 119.765625 32.515625 "/>
        <path style="stroke:none;fill-rule:nonzero;fill:#ef8a57;fill-opacity:1" d="M 119.765625 32.511719 L 96.539062 0 L 94.601562 0 L 129.773438 58.738281 L 119.765625 32.515625 L 119.765625 32.511719 "/>
        <path style="stroke:none;fill-rule:nonzero;fill:#ef7f48;fill-opacity:1" d="M 178.179688 37.882812 L 180.0625 63.675781 L 119.765625 32.511719 L 178.183594 37.878906 L 178.179688 37.882812 "/>
        <path style="stroke:none;fill-rule:nonzero;fill:#ef8a57;fill-opacity:1" d="M 0 99.46875 L 0 113.617188 L 84.582031 125.582031 L 16.195312 82.972656 L 16.195312 82.96875 L 0 99.46875 "/>
        <path style="stroke:none;fill-rule:nonzero;fill:#ef7f48;fill-opacity:1" d="M 74 43.683594 L 84.582031 125.582031 L 78.484375 69.777344 L 73.996094 43.6875 L 74 43.683594 "/>
        <path style="stroke:none;fill-rule:nonzero;fill:#ef8a57;fill-opacity:1" d="M 74 43.683594 L 84.582031 125.582031 L 16.195312 82.972656 L 73.996094 43.6875 L 74 43.683594 "/>
        <path style="stroke:none;fill-rule:nonzero;fill:#ef7f48;fill-opacity:1" d="M 129.773438 58.734375 L 78.484375 69.777344 L 168.265625 103.375 L 129.773438 58.738281 L 129.773438 58.734375 "/>
        <path style="stroke:none;fill-rule:nonzero;fill:#ef8a57;fill-opacity:1" d="M 129.773438 58.734375 L 78.484375 69.777344 L 73.996094 43.6875 L 129.773438 58.738281 L 129.773438 58.734375 "/>
        <path style="stroke:none;fill-rule:nonzero;fill:#ef7f48;fill-opacity:1" d="M 180.066406 63.675781 L 168.265625 103.375 L 193.257812 95.871094 L 180.0625 63.675781 L 180.066406 63.675781 "/>
        <path style="stroke:none;fill-rule:nonzero;fill:#ef8a57;fill-opacity:1" d="M 180.066406 63.675781 L 168.265625 103.375 L 129.773438 58.738281 L 180.0625 63.675781 L 180.066406 63.675781 "/>
        <path style="stroke:none;fill-rule:nonzero;fill:#ef7f48;fill-opacity:1" d="M 193.859375 35.359375 L 193.257812 95.871094 L 180.0625 63.675781 L 193.863281 35.359375 L 193.859375 35.359375 "/>
        <path style="stroke:none;fill-rule:nonzero;fill:#ef8a57;fill-opacity:1" d="M 84.582031 125.582031 L 63.128906 153.976562 L 57.5 116.214844 L 84.582031 125.582031 "/>
        <path style="stroke:none;fill-rule:nonzero;fill:#ef7f48;fill-opacity:1" d="M 84.582031 125.582031 L 0 113.617188 L 0 118.703125 L 63.128906 153.976562 L 84.582031 125.582031 "/>
        <path style="stroke:none;fill-rule:nonzero;fill:#ef8a57;fill-opacity:1" d="M 78.484375 69.777344 L 57.5 116.214844 L 101.953125 164.257812 L 78.484375 69.777344 "/>
        <path style="stroke:none;fill-rule:nonzero;fill:#ef7f48;fill-opacity:1" d="M 78.484375 69.777344 L 57.5 116.214844 L 84.582031 125.582031 L 78.484375 69.777344 "/>
        <path style="stroke:none;fill-rule:nonzero;fill:#ef8a57;fill-opacity:1" d="M 168.269531 103.375 L 101.953125 164.257812 L 152.316406 110.683594 L 168.265625 103.375 L 168.269531 103.375 "/>
        <path style="stroke:none;fill-rule:nonzero;fill:#ed6d2d;fill-opacity:1" d="M 168.269531 103.375 L 101.953125 164.257812 L 78.484375 69.777344 L 168.265625 103.375 L 168.269531 103.375 "/>
        <path style="stroke:none;fill-rule:nonzero;fill:#ec6521;fill-opacity:1" d="M 193.257812 95.867188 L 152.316406 110.683594 L 201.644531 114.433594 L 193.257812 95.871094 L 193.257812 95.867188 "/>
        <path style="stroke:none;fill-rule:nonzero;fill:#ed6d2d;fill-opacity:1" d="M 193.257812 95.867188 L 152.316406 110.683594 L 168.265625 103.375 L 193.257812 95.871094 L 193.257812 95.867188 "/>
        <path style="stroke:none;fill-rule:nonzero;fill:#ec6521;fill-opacity:1" d="M 221.230469 77.296875 L 201.644531 114.433594 L 270.066406 127.894531 L 221.234375 77.300781 L 221.230469 77.296875 "/>
        <path style="stroke:none;fill-rule:nonzero;fill:#ed6d2d;fill-opacity:1" d="M 221.230469 77.296875 L 201.644531 114.433594 L 193.257812 95.871094 L 221.234375 77.300781 L 221.230469 77.296875 "/>
        <path style="stroke:none;fill-rule:nonzero;fill:#ec6521;fill-opacity:1" d="M 377.449219 126.308594 L 294.03125 153.324219 L 385.683594 131.785156 L 377.453125 126.308594 L 377.449219 126.308594 "/>
        <path style="stroke:none;fill-rule:nonzero;fill:#ed6d2d;fill-opacity:1" d="M 57.503906 116.214844 L 41.066406 201.105469 L 105.960938 198.457031 L 57.5 116.214844 L 57.503906 116.214844 "/>
        <path style="stroke:none;fill-rule:nonzero;fill:#ec6521;fill-opacity:1" d="M 57.503906 116.214844 L 41.066406 201.105469 L 63.128906 153.976562 L 57.5 116.214844 L 57.503906 116.214844 "/>
        <path style="stroke:none;fill-rule:nonzero;fill:#ed6d2d;fill-opacity:1" d="M 101.957031 164.257812 L 105.960938 198.457031 L 124.011719 203.390625 L 101.953125 164.257812 L 101.957031 164.257812 "/>
        <path style="stroke:none;fill-rule:nonzero;fill:#ec6521;fill-opacity:1" d="M 101.957031 164.257812 L 105.960938 198.457031 L 57.5 116.214844 L 101.953125 164.257812 L 101.957031 164.257812 "/>
        <path style="stroke:none;fill-rule:nonzero;fill:#ed6d2d;fill-opacity:1" d="M 152.316406 110.683594 L 124.011719 203.390625 L 199.527344 182.496094 L 152.316406 110.683594 "/>
        <path style="stroke:none;fill-rule:nonzero;fill:#ec6521;fill-opacity:1" d="M 152.316406 110.683594 L 124.011719 203.390625 L 101.953125 164.257812 L 152.316406 110.683594 "/>
        <path style="stroke:none;fill-rule:nonzero;fill:#ed6d2d;fill-opacity:1" d="M 201.644531 114.429688 L 199.527344 182.496094 L 265.917969 159.871094 L 201.644531 114.433594 L 201.644531 114.429688 "/>
        <path style="stroke:none;fill-rule:nonzero;fill:#ec6521;fill-opacity:1" d="M 201.644531 114.429688 L 199.527344 182.496094 L 152.316406 110.683594 L 201.644531 114.433594 L 201.644531 114.429688 "/>
        <path style="stroke:none;fill-rule:nonzero;fill:#ed6d2d;fill-opacity:1" d="M 270.0625 127.890625 L 265.917969 159.871094 L 274.664062 168.339844 L 270.066406 127.894531 L 270.0625 127.890625 "/>
        <path style="stroke:none;fill-rule:nonzero;fill:#ec6521;fill-opacity:1" d="M 270.0625 127.890625 L 265.917969 159.871094 L 201.644531 114.433594 L 270.066406 127.894531 L 270.0625 127.890625 "/>
        <path style="stroke:none;fill-rule:nonzero;fill:#ed6d2d;fill-opacity:1" d="M 294.027344 153.328125 L 274.664062 168.339844 L 381.28125 176.449219 L 294.03125 153.324219 L 294.027344 153.328125 "/>
        <path style="stroke:none;fill-rule:nonzero;fill:#ec6521;fill-opacity:1" d="M 294.027344 153.328125 L 274.664062 168.339844 L 270.066406 127.894531 L 294.03125 153.324219 L 294.027344 153.328125 "/>
        <path style="stroke:none;fill-rule:nonzero;fill:#ed6d2d;fill-opacity:1" d="M 385.683594 131.785156 L 381.28125 176.449219 L 294.03125 153.324219 L 385.683594 131.785156 "/>
        <path style="stroke:none;fill-rule:nonzero;fill:#ec6521;fill-opacity:1" d="M 41.066406 201.105469 L 16.304688 225.15625 L 112.195312 234.054688 L 41.066406 201.105469 "/>
        <path style="stroke:none;fill-rule:nonzero;fill:#f25f15;fill-opacity:1" d="M 105.960938 198.457031 L 112.195312 234.054688 L 125.976562 212.761719 L 105.960938 198.457031 "/>
        <path style="stroke:none;fill-rule:nonzero;fill:#f1570a;fill-opacity:1" d="M 105.960938 198.457031 L 112.195312 234.054688 L 41.066406 201.105469 L 105.960938 198.457031 "/>
        <path style="stroke:none;fill-rule:nonzero;fill:#f25f15;fill-opacity:1" d="M 124.015625 203.386719 L 125.976562 212.761719 L 181.5 251.367188 L 124.011719 203.390625 L 124.015625 203.386719 "/>
        <path style="stroke:none;fill-rule:nonzero;fill:#f1570a;fill-opacity:1" d="M 124.015625 203.386719 L 125.976562 212.761719 L 105.960938 198.457031 L 124.011719 203.390625 L 124.015625 203.386719 "/>
        <path style="stroke:none;fill-rule:nonzero;fill:#f25f15;fill-opacity:1" d="M 199.527344 182.492188 L 181.5 251.367188 L 256.050781 224.179688 L 199.527344 182.496094 L 199.527344 182.492188 "/>
        <path style="stroke:none;fill-rule:nonzero;fill:#f1570a;fill-opacity:1" d="M 199.527344 182.492188 L 181.5 251.367188 L 124.011719 203.390625 L 199.527344 182.496094 L 199.527344 182.492188 "/>
        <path style="stroke:none;fill-rule:nonzero;fill:#f25f15;fill-opacity:1" d="M 265.917969 159.875 L 256.050781 224.179688 L 247.191406 233.253906 L 265.917969 159.871094 L 265.917969 159.875 "/>
        <path style="stroke:none;fill-rule:nonzero;fill:#f1570a;fill-opacity:1" d="M 265.917969 159.875 L 256.050781 224.179688 L 199.527344 182.496094 L 265.917969 159.871094 L 265.917969 159.875 "/>
        <path style="stroke:none;fill-rule:nonzero;fill:#f25f15;fill-opacity:1" d="M 274.664062 168.339844 L 247.191406 233.253906 L 344.667969 220.078125 L 274.664062 168.339844 "/>
        <path style="stroke:none;fill-rule:nonzero;fill:#f1570a;fill-opacity:1" d="M 274.664062 168.339844 L 247.191406 233.253906 L 265.917969 159.871094 L 274.664062 168.339844 "/>
        <path style="stroke:none;fill-rule:nonzero;fill:#f25f15;fill-opacity:1" d="M 381.28125 176.449219 L 344.667969 220.078125 L 386.289062 250.246094 L 381.28125 176.449219 "/>
        <path style="stroke:none;fill-rule:nonzero;fill:#f1570a;fill-opacity:1" d="M 381.28125 176.449219 L 344.667969 220.078125 L 274.664062 168.339844 L 381.28125 176.449219 "/>
        <path style="stroke:none;fill-rule:nonzero;fill:#f25f15;fill-opacity:1" d="M 387.035156 160.707031 L 386.289062 250.246094 L 411.765625 249.367188 L 387.035156 160.710938 L 387.035156 160.707031 "/>
        <path style="stroke:none;fill-rule:nonzero;fill:#f1570a;fill-opacity:1" d="M 387.035156 160.707031 L 386.289062 250.246094 L 381.28125 176.449219 L 387.035156 160.710938 L 387.035156 160.707031 "/>
        <path style="stroke:none;fill-rule:nonzero;fill:#f25f15;fill-opacity:1" d="M 444.664062 199.160156 L 411.765625 249.367188 L 448.800781 199.300781 L 444.664062 199.160156 "/>
        <path style="stroke:none;fill-rule:nonzero;fill:#f1570a;fill-opacity:1" d="M 444.664062 199.160156 L 411.765625 249.367188 L 387.035156 160.710938 L 444.664062 199.160156 "/>
        <path style="stroke:none;fill-rule:nonzero;fill:#f25f15;fill-opacity:1" d="M 0 281.722656 L 68.941406 255.550781 L 16.304688 225.15625 L 0 253.011719 L 0 281.722656 "/>
        <path style="stroke:none;fill-rule:nonzero;fill:#f1570a;fill-opacity:1" d="M 112.191406 234.050781 L 68.941406 255.550781 L 122.550781 240.789062 L 112.195312 234.054688 L 112.191406 234.050781 "/>
        <path style="stroke:none;fill-rule:nonzero;fill:#f25f15;fill-opacity:1" d="M 112.191406 234.050781 L 68.941406 255.550781 L 16.304688 225.15625 L 112.195312 234.054688 L 112.191406 234.050781 "/>
        <path style="stroke:none;fill-rule:nonzero;fill:#f1570a;fill-opacity:1" d="M 125.976562 212.761719 L 122.550781 240.789062 L 186.277344 265.332031 L 125.976562 212.761719 "/>
        <path style="stroke:none;fill-rule:nonzero;fill:#df520b;fill-opacity:1" d="M 125.976562 212.761719 L 122.550781 240.789062 L 112.195312 234.054688 L 125.976562 212.761719 "/>
        <path style="stroke:none;fill-rule:nonzero;fill:#c64a0c;fill-opacity:1" d="M 181.5 251.363281 L 186.277344 265.332031 L 218.859375 265.433594 L 181.5 251.367188 L 181.5 251.363281 "/>
        <path style="stroke:none;fill-rule:nonzero;fill:#df520b;fill-opacity:1" d="M 181.5 251.363281 L 186.277344 265.332031 L 125.976562 212.761719 L 181.5 251.367188 L 181.5 251.363281 "/>
        <path style="stroke:none;fill-rule:nonzero;fill:#c64a0c;fill-opacity:1" d="M 256.054688 224.179688 L 218.859375 265.433594 L 281.898438 255.027344 L 256.050781 224.179688 L 256.054688 224.179688 "/>
        <path style="stroke:none;fill-rule:nonzero;fill:#df520b;fill-opacity:1" d="M 256.054688 224.179688 L 218.859375 265.433594 L 181.5 251.367188 L 256.050781 224.179688 L 256.054688 224.179688 "/>
        <path style="stroke:none;fill-rule:nonzero;fill:#c64a0c;fill-opacity:1" d="M 247.1875 233.253906 L 281.898438 255.027344 L 312.84375 246.980469 L 247.191406 233.253906 L 247.1875 233.253906 "/>
        <path style="stroke:none;fill-rule:nonzero;fill:#df520b;fill-opacity:1" d="M 247.1875 233.253906 L 281.898438 255.027344 L 256.050781 224.179688 L 247.191406 233.253906 L 247.1875 233.253906 "/>
        <path style="stroke:none;fill-rule:nonzero;fill:#c64a0c;fill-opacity:1" d="M 344.667969 220.074219 L 312.84375 246.980469 L 381.730469 254.941406 L 344.667969 220.078125 L 344.667969 220.074219 "/>
        <path style="stroke:none;fill-rule:nonzero;fill:#df520b;fill-opacity:1" d="M 344.667969 220.074219 L 312.84375 246.980469 L 247.191406 233.253906 L 344.667969 220.078125 L 344.667969 220.074219 "/>
        <path style="stroke:none;fill-rule:nonzero;fill:#c64a0c;fill-opacity:1" d="M 386.292969 250.246094 L 381.730469 254.941406 L 370.390625 273.632812 L 386.289062 250.246094 L 386.292969 250.246094 "/>
        <path style="stroke:none;fill-rule:nonzero;fill:#df520b;fill-opacity:1" d="M 386.292969 250.246094 L 381.730469 254.941406 L 344.667969 220.078125 L 386.289062 250.246094 L 386.292969 250.246094 "/>
        <path style="stroke:none;fill-rule:nonzero;fill:#c64a0c;fill-opacity:1" d="M 411.765625 249.371094 L 370.390625 273.632812 L 475.40625 251.503906 L 411.765625 249.367188 L 411.765625 249.371094 "/>
        <path style="stroke:none;fill-rule:nonzero;fill:#df520b;fill-opacity:1" d="M 411.765625 249.371094 L 370.390625 273.632812 L 386.289062 250.246094 L 411.765625 249.367188 L 411.765625 249.371094 "/>
        <path style="stroke:none;fill-rule:nonzero;fill:#c64a0c;fill-opacity:1" d="M 448.800781 199.304688 L 475.40625 251.503906 L 411.765625 249.367188 L 448.800781 199.300781 L 448.800781 199.304688 "/>
        <path style="stroke:none;fill-rule:nonzero;fill:#df520b;fill-opacity:1" d="M 68.941406 255.546875 L 9.101562 293.09375 L 80.011719 282.675781 L 68.941406 255.550781 L 68.941406 255.546875 "/>
        <path style="stroke:none;fill-rule:nonzero;fill:#c64a0c;fill-opacity:1" d="M 0 281.722656 L 0 292.160156 L 9.101562 293.09375 L 68.925781 255.554688 L 0 281.722656 "/>
        <path style="stroke:none;fill-rule:nonzero;fill:#df520b;fill-opacity:1" d="M 122.550781 240.789062 L 80.011719 282.675781 L 159.335938 329.042969 L 122.550781 240.789062 "/>
        <path style="stroke:none;fill-rule:nonzero;fill:#c64a0c;fill-opacity:1" d="M 122.550781 240.789062 L 80.011719 282.675781 L 68.941406 255.550781 L 122.550781 240.789062 "/>
        <path style="stroke:none;fill-rule:nonzero;fill:#b4450d;fill-opacity:1" d="M 186.285156 265.332031 L 159.335938 329.042969 L 158.445312 320.285156 L 186.277344 265.332031 L 186.285156 265.332031 "/>
        <path style="stroke:none;fill-rule:nonzero;fill:#c64a0c;fill-opacity:1" d="M 186.285156 265.332031 L 159.335938 329.042969 L 122.550781 240.789062 L 186.277344 265.332031 L 186.285156 265.332031 "/>
        <path style="stroke:none;fill-rule:nonzero;fill:#b4450d;fill-opacity:1" d="M 218.863281 265.433594 L 158.445312 320.285156 L 249.019531 294.867188 L 218.859375 265.433594 L 218.863281 265.433594 "/>
        <path style="stroke:none;fill-rule:nonzero;fill:#a73f0b;fill-opacity:1" d="M 218.863281 265.433594 L 158.445312 320.285156 L 186.277344 265.332031 L 218.859375 265.433594 L 218.863281 265.433594 "/>
        <path style="stroke:none;fill-rule:nonzero;fill:#b4450d;fill-opacity:1" d="M 281.902344 255.023438 L 249.019531 294.867188 L 307.800781 310.375 L 281.898438 255.027344 L 281.902344 255.023438 "/>
        <path style="stroke:none;fill-rule:nonzero;fill:#a73f0b;fill-opacity:1" d="M 281.902344 255.023438 L 249.019531 294.867188 L 218.859375 265.433594 L 281.898438 255.027344 L 281.902344 255.023438 "/>
        <path style="stroke:none;fill-rule:nonzero;fill:#b4450d;fill-opacity:1" d="M 312.84375 246.976562 L 307.800781 310.375 L 340.363281 306.875 L 312.84375 246.980469 L 312.84375 246.976562 "/>
        <path style="stroke:none;fill-rule:nonzero;fill:#a73f0b;fill-opacity:1" d="M 312.84375 246.976562 L 307.800781 310.375 L 281.898438 255.027344 L 312.84375 246.980469 L 312.84375 246.976562 "/>
        <path style="stroke:none;fill-rule:nonzero;fill:#b4450d;fill-opacity:1" d="M 381.730469 254.941406 L 340.363281 306.875 L 393.441406 285.714844 L 381.730469 254.941406 "/>
        <path style="stroke:none;fill-rule:nonzero;fill:#a73f0b;fill-opacity:1" d="M 381.730469 254.941406 L 340.363281 306.875 L 312.84375 246.980469 L 381.730469 254.941406 "/>
        <path style="stroke:none;fill-rule:nonzero;fill:#b4450d;fill-opacity:1" d="M 370.394531 273.625 L 393.441406 285.714844 L 416.929688 289.125 L 370.390625 273.632812 L 370.394531 273.625 "/>
        <path style="stroke:none;fill-rule:nonzero;fill:#a73f0b;fill-opacity:1" d="M 370.394531 273.625 L 393.441406 285.714844 L 381.730469 254.941406 L 370.390625 273.632812 L 370.394531 273.625 "/>
        <path style="stroke:none;fill-rule:nonzero;fill:#b4450d;fill-opacity:1" d="M 475.40625 251.503906 L 416.929688 289.125 L 466.226562 302.417969 L 475.40625 251.503906 "/>
        <path style="stroke:none;fill-rule:nonzero;fill:#a73f0b;fill-opacity:1" d="M 475.40625 251.503906 L 416.929688 289.125 L 370.390625 273.632812 L 475.40625 251.503906 "/>
        <path style="stroke:none;fill-rule:nonzero;fill:#b4450d;fill-opacity:1" d="M 80.007812 282.675781 L 21.640625 325.53125 L 90.519531 336.867188 L 80.011719 282.675781 L 80.007812 282.675781 "/>
        <path style="stroke:none;fill-rule:nonzero;fill:#a73f0b;fill-opacity:1" d="M 80.007812 282.675781 L 21.640625 325.53125 L 9.101562 293.09375 L 80.011719 282.675781 L 80.007812 282.675781 "/>
        <path style="stroke:none;fill-rule:nonzero;fill:#b4450d;fill-opacity:1" d="M 159.335938 329.035156 L 90.519531 336.867188 L 147.640625 353.242188 L 159.335938 329.042969 L 159.335938 329.035156 "/>
        <path style="stroke:none;fill-rule:nonzero;fill:#a73f0b;fill-opacity:1" d="M 159.335938 329.035156 L 90.519531 336.867188 L 80.011719 282.675781 L 159.335938 329.042969 L 159.335938 329.035156 "/>
        <path style="stroke:none;fill-rule:nonzero;fill:#b4450d;fill-opacity:1" d="M 158.445312 320.285156 L 147.640625 353.242188 L 179.390625 328.425781 L 158.445312 320.285156 "/>
        <path style="stroke:none;fill-rule:nonzero;fill:#a73f0b;fill-opacity:1" d="M 158.445312 320.285156 L 147.640625 353.242188 L 159.335938 329.042969 L 158.445312 320.285156 "/>
        <path style="stroke:none;fill-rule:nonzero;fill:#94390b;fill-opacity:1" d="M 249.023438 294.867188 L 179.390625 328.425781 L 244.371094 352.007812 L 249.019531 294.867188 L 249.023438 294.867188 "/>
        <path style="stroke:none;fill-rule:nonzero;fill:#802f07;fill-opacity:1" d="M 249.023438 294.867188 L 179.390625 328.425781 L 158.445312 320.285156 L 249.019531 294.867188 L 249.023438 294.867188 "/>
        <path style="stroke:none;fill-rule:nonzero;fill:#94390b;fill-opacity:1" d="M 307.800781 310.375 L 244.371094 352.007812 L 316.820312 341.464844 L 307.800781 310.375 "/>
        <path style="stroke:none;fill-rule:nonzero;fill:#802f07;fill-opacity:1" d="M 307.800781 310.375 L 244.371094 352.007812 L 249.019531 294.867188 L 307.800781 310.375 "/>
        <path style="stroke:none;fill-rule:nonzero;fill:#94390b;fill-opacity:1" d="M 340.363281 306.875 L 316.820312 341.464844 L 348.59375 359.082031 L 340.363281 306.875 "/>
        <path style="stroke:none;fill-rule:nonzero;fill:#802f07;fill-opacity:1" d="M 340.363281 306.875 L 316.820312 341.464844 L 307.800781 310.375 L 340.363281 306.875 "/>
        <path style="stroke:none;fill-rule:nonzero;fill:#94390b;fill-opacity:1" d="M 393.445312 285.714844 L 348.59375 359.082031 L 371.25 335.75 L 393.441406 285.714844 L 393.445312 285.714844 "/>
        <path style="stroke:none;fill-rule:nonzero;fill:#802f07;fill-opacity:1" d="M 393.445312 285.714844 L 348.59375 359.082031 L 340.363281 306.875 L 393.441406 285.714844 L 393.445312 285.714844 "/>
        <path style="stroke:none;fill-rule:nonzero;fill:#94390b;fill-opacity:1" d="M 416.929688 289.125 L 371.25 335.75 L 424.929688 340.765625 L 416.929688 289.125 "/>
        <path style="stroke:none;fill-rule:nonzero;fill:#802f07;fill-opacity:1" d="M 416.929688 289.125 L 371.25 335.75 L 393.441406 285.714844 L 416.929688 289.125 "/>
        <path style="stroke:none;fill-rule:nonzero;fill:#94390b;fill-opacity:1" d="M 21.640625 325.523438 L 34.128906 394.140625 L 94.84375 364.675781 L 21.640625 325.53125 L 21.640625 325.523438 "/>
        <path style="stroke:none;fill-rule:nonzero;fill:#802f07;fill-opacity:1" d="M 90.519531 336.867188 L 94.84375 364.675781 L 151.15625 407.09375 L 90.519531 336.867188 "/>
        <path style="stroke:none;fill-rule:nonzero;fill:#94390b;fill-opacity:1" d="M 90.519531 336.867188 L 94.84375 364.675781 L 21.640625 325.53125 L 90.519531 336.867188 "/>
        <path style="stroke:none;fill-rule:nonzero;fill:#802f07;fill-opacity:1" d="M 147.644531 353.242188 L 151.15625 407.09375 L 189.988281 423.507812 L 147.640625 353.242188 L 147.644531 353.242188 "/>
        <path style="stroke:none;fill-rule:nonzero;fill:#94390b;fill-opacity:1" d="M 147.644531 353.242188 L 151.15625 407.09375 L 90.519531 336.867188 L 147.640625 353.242188 L 147.644531 353.242188 "/>
        <path style="stroke:none;fill-rule:nonzero;fill:#802f07;fill-opacity:1" d="M 179.386719 328.425781 L 189.988281 423.507812 L 233.632812 380.464844 L 179.390625 328.425781 L 179.386719 328.425781 "/>
        <path style="stroke:none;fill-rule:nonzero;fill:#94390b;fill-opacity:1" d="M 179.386719 328.425781 L 189.988281 423.507812 L 147.640625 353.242188 L 179.390625 328.425781 L 179.386719 328.425781 "/>
        <path style="stroke:none;fill-rule:nonzero;fill:#802f07;fill-opacity:1" d="M 244.367188 352.015625 L 233.632812 380.464844 L 282.210938 403.132812 L 244.371094 352.007812 L 244.367188 352.015625 "/>
        <path style="stroke:none;fill-rule:nonzero;fill:#94390b;fill-opacity:1" d="M 244.367188 352.015625 L 233.632812 380.464844 L 179.390625 328.425781 L 244.371094 352.007812 L 244.367188 352.015625 "/>
        <path style="stroke:none;fill-rule:nonzero;fill:#802f07;fill-opacity:1" d="M 316.820312 341.464844 L 282.210938 403.132812 L 309.640625 387.964844 L 316.820312 341.464844 "/>
        <path style="stroke:none;fill-rule:nonzero;fill:#802106;fill-opacity:1" d="M 316.820312 341.464844 L 282.210938 403.132812 L 244.371094 352.007812 L 316.820312 341.464844 "/>
        <path style="stroke:none;fill-rule:nonzero;fill:#771f07;fill-opacity:1" d="M 94.851562 364.675781 L 29.191406 442.515625 L 106.070312 436.292969 L 94.84375 364.675781 L 94.851562 364.675781 "/>
        <path style="stroke:none;fill-rule:nonzero;fill:#802106;fill-opacity:1" d="M 94.851562 364.675781 L 29.191406 442.515625 L 34.128906 394.140625 L 94.84375 364.675781 L 94.851562 364.675781 "/>
        <path style="stroke:none;fill-rule:nonzero;fill:#771f07;fill-opacity:1" d="M 151.148438 407.101562 L 106.070312 436.292969 L 132.054688 449.699219 L 151.15625 407.09375 L 151.148438 407.101562 "/>
        <path style="stroke:none;fill-rule:nonzero;fill:#802106;fill-opacity:1" d="M 151.148438 407.101562 L 106.070312 436.292969 L 94.84375 364.675781 L 151.15625 407.09375 L 151.148438 407.101562 "/>
        <path style="stroke:none;fill-rule:nonzero;fill:#771f07;fill-opacity:1" d="M 189.988281 423.507812 L 132.054688 449.699219 L 168.210938 453.417969 L 189.988281 423.507812 "/>
        <path style="stroke:none;fill-rule:nonzero;fill:#802106;fill-opacity:1" d="M 189.988281 423.507812 L 132.054688 449.699219 L 151.15625 407.09375 L 189.988281 423.507812 "/>
        <path style="stroke:none;fill-rule:nonzero;fill:#771f07;fill-opacity:1" d="M 233.636719 380.464844 L 168.210938 453.417969 L 218.710938 427.101562 L 233.632812 380.464844 L 233.636719 380.464844 "/>
        <path style="stroke:none;fill-rule:nonzero;fill:#802106;fill-opacity:1" d="M 233.636719 380.464844 L 168.210938 453.417969 L 189.988281 423.507812 L 233.632812 380.464844 L 233.636719 380.464844 "/>
        <path style="stroke:none;fill-rule:nonzero;fill:#771f07;fill-opacity:1" d="M 282.210938 403.132812 L 218.710938 427.101562 L 233.632812 380.464844 L 282.210938 403.132812 "/>
        <path style="stroke:none;fill-rule:nonzero;fill:#802106;fill-opacity:1" d="M 106.070312 436.292969 L 49.878906 482.359375 L 142.496094 488.226562 L 106.070312 436.292969 "/>
        <path style="stroke:none;fill-rule:nonzero;fill:#771f07;fill-opacity:1" d="M 106.070312 436.292969 L 49.878906 482.359375 L 29.191406 442.515625 L 106.070312 436.292969 "/>
        <path style="stroke:none;fill-rule:nonzero;fill:#802106;fill-opacity:1" d="M 132.050781 449.699219 L 142.496094 488.226562 L 106.070312 436.292969 L 132.054688 449.699219 L 132.050781 449.699219 "/>
        <path style="stroke:none;fill-rule:nonzero;fill:#771f07;fill-opacity:1" d="M 218.710938 427.109375 L 198.148438 482.375 L 168.210938 453.417969 L 218.710938 427.101562 L 218.710938 427.109375 "/>
    </g>
</svg>
