<svg width="512" height="512" xmlns="http://www.w3.org/2000/svg">

 <mask id="mask">
  <path d="m80.84766,32.9043c-2.76232,-0.02142 -5.53768,0.66773 -8.04297,2.07617c-4.96473,2.83218 -8.0293,8.10835 -8.0293,13.83594l0,463.18359c0,0 3.06457,0 8.0293,0c2.45787,0 5.1832,0 7.90625,0c2.80054,0 5.6016,0 8.10742,0l350.58008,0c72.60156,0 7.82617,-250.37795 7.82617,-256.01172c0,-5.63376 -2.97058,-10.84746 -7.82617,-13.72656l-350.58008,-207.17188c-2.4584,-1.4319 -5.20839,-2.16413 -7.9707,-2.18554z" fill="white" id="triangle"/>
 </mask>
 <g>
  <title>background</title>
  <rect fill="none" id="canvas_background" height="602" width="802" y="-1" x="-1"/>
 </g>
 <g>
  <title>Layer 1</title>
  <path id="svg_1" mask="url(#mask)" fill="url(#gradient)" d="m0,0l512,0l0,512l-512,0l0,-512z"/>
  <g id="svg_111" mask="url(#mask)">
   <path id="svg_112" fill-rule="nonzero" fill="#ef8a57" d="m60.64844,18.96484l-44.45313,64.00782l57.80078,-39.28516l-13.35156,-24.72266l0.00391,0"/>
   <path id="svg_113" fill-rule="nonzero" fill="#ef7f48" d="m81.61328,0l-7.61719,43.6875l55.77735,15.05078l-35.17188,-58.73828l-12.98828,0"/>
   <path id="svg_114" fill-rule="nonzero" fill="#ef8a57" d="m73.31641,0l-12.67188,18.96484l13.35156,24.72266l7.61719,-43.6875l-8.29687,0"/>
   <path id="svg_115" fill-rule="nonzero" fill="#ef7f48" d="m119.76563,32.51563l10.00781,26.22265l50.28906,4.9375l-60.29687,-31.16406l0,0.00391"/>
   <path id="svg_116" fill-rule="nonzero" fill="#ef8a57" d="m119.76563,32.51172l-23.22657,-32.51172l-1.9375,0l35.17188,58.73828l-10.00781,-26.22265l0,-0.00391"/>
   <path id="svg_117" fill-rule="nonzero" fill="#ef7f48" d="m178.17969,37.88281l1.88281,25.79297l-60.29687,-31.16406l58.41796,5.36719l-0.0039,0.0039"/>
   <path id="svg_118" fill-rule="nonzero" fill="#ef8a57" d="m0,99.46875l0,14.14844l84.58203,11.96484l-68.38672,-42.60937l0,-0.00391l-16.19531,16.5"/>
   <path id="svg_119" fill-rule="nonzero" fill="#ef7f48" d="m74,43.68359l10.58203,81.89844l-6.09765,-55.80469l-4.48829,-26.08984l0.00391,-0.00391"/>
   <path id="svg_120" fill-rule="nonzero" fill="#ef8a57" d="m74,43.68359l10.58203,81.89844l-68.38672,-42.60937l57.80078,-39.28516l0.00391,-0.00391"/>
   <path id="svg_121" fill-rule="nonzero" fill="#ef7f48" d="m129.77344,58.73438l-51.28906,11.04296l89.78125,33.59766l-38.49219,-44.63672l0,-0.0039"/>
   <path id="svg_122" fill-rule="nonzero" fill="#ef8a57" d="m129.77344,58.73438l-51.28906,11.04296l-4.48829,-26.08984l55.77735,15.05078l0,-0.0039"/>
   <path id="svg_123" fill-rule="nonzero" fill="#ef7f48" d="m180.06641,63.67578l-11.80078,39.69922l24.99218,-7.50391l-13.19531,-32.19531l0.00391,0"/>
   <path id="svg_124" fill-rule="nonzero" fill="#ef8a57" d="m180.06641,63.67578l-11.80078,39.69922l-38.49219,-44.63672l50.28906,4.9375l0.00391,0"/>
   <path id="svg_125" fill-rule="nonzero" fill="#ef7f48" d="m193.85938,35.35938l-0.60157,60.51171l-13.19531,-32.19531l13.80078,-28.3164l-0.0039,0"/>
   <path id="svg_126" fill-rule="nonzero" fill="#ef8a57" d="m84.58203,125.58203l-21.45312,28.39453l-5.62891,-37.76172l27.08203,9.36719"/>
   <path id="svg_127" fill-rule="nonzero" fill="#ef7f48" d="m84.58203,125.58203l-84.58203,-11.96484l0,5.08594l63.12891,35.27343l21.45312,-28.39453"/>
   <path id="svg_128" fill-rule="nonzero" fill="#ef8a57" d="m78.48438,69.77734l-20.98438,46.4375l44.45313,48.04297l-23.46875,-94.48047"/>
   <path id="svg_129" fill-rule="nonzero" fill="#ef7f48" d="m78.48438,69.77734l-20.98438,46.4375l27.08203,9.36719l-6.09765,-55.80469"/>
   <path id="svg_130" fill-rule="nonzero" fill="#ef8a57" d="m168.26953,103.375l-66.3164,60.88281l50.36328,-53.57422l15.94922,-7.30859l0.0039,0"/>
   <path id="svg_131" fill-rule="nonzero" fill="#ed6d2d" d="m168.26953,103.375l-66.3164,60.88281l-23.46875,-94.48047l89.78125,33.59766l0.0039,0"/>
   <path id="svg_132" fill-rule="nonzero" fill="#ec6521" d="m193.25781,95.86719l-40.9414,14.8164l49.32812,3.75l-8.38672,-18.5625l0,-0.0039"/>
   <path id="svg_133" fill-rule="nonzero" fill="#ed6d2d" d="m193.25781,95.86719l-40.9414,14.8164l15.94922,-7.30859l24.99218,-7.50391l0,-0.0039"/>
   <path id="svg_134" fill-rule="nonzero" fill="#ec6521" d="m221.23047,77.29688l-19.58594,37.13671l68.42188,13.46094l-48.83203,-50.59375l-0.00391,-0.0039"/>
   <path id="svg_135" fill-rule="nonzero" fill="#ed6d2d" d="m221.23047,77.29688l-19.58594,37.13671l-8.38672,-18.5625l27.97657,-18.57031l-0.00391,-0.0039"/>
   <path id="svg_136" fill-rule="nonzero" fill="#ec6521" d="m377.44922,126.30859l-83.41797,27.01563l91.65234,-21.53906l-8.23046,-5.47657l-0.00391,0"/>
   <path id="svg_137" fill-rule="nonzero" fill="#ed6d2d" d="m57.50391,116.21484l-16.4375,84.89063l64.89453,-2.64844l-48.46094,-82.24219l0.00391,0"/>
   <path id="svg_138" fill-rule="nonzero" fill="#ec6521" d="m57.50391,116.21484l-16.4375,84.89063l22.0625,-47.12891l-5.62891,-37.76172l0.00391,0"/>
   <path id="svg_139" fill-rule="nonzero" fill="#ed6d2d" d="m101.95703,164.25781l4.00391,34.19922l18.05078,4.9336l-22.05859,-39.13282l0.0039,0"/>
   <path id="svg_140" fill-rule="nonzero" fill="#ec6521" d="m101.95703,164.25781l4.00391,34.19922l-48.46094,-82.24219l44.45313,48.04297l0.0039,0"/>
   <path id="svg_141" fill-rule="nonzero" fill="#ed6d2d" d="m152.31641,110.68359l-28.30469,92.70704l75.51562,-20.89454l-47.21093,-71.8125"/>
   <path id="svg_142" fill-rule="nonzero" fill="#ec6521" d="m152.31641,110.68359l-28.30469,92.70704l-22.05859,-39.13282l50.36328,-53.57422"/>
   <path id="svg_143" fill-rule="nonzero" fill="#ed6d2d" d="m201.64453,114.42969l-2.11719,68.0664l66.39063,-22.625l-64.27344,-45.4375l0,-0.0039"/>
   <path id="svg_144" fill-rule="nonzero" fill="#ec6521" d="m201.64453,114.42969l-2.11719,68.0664l-47.21093,-71.8125l49.32812,3.75l0,-0.0039"/>
   <path id="svg_145" fill-rule="nonzero" fill="#ed6d2d" d="m270.0625,127.89063l-4.14453,31.98046l8.74609,8.46875l-4.59765,-40.44531l-0.00391,-0.0039"/>
   <path id="svg_146" fill-rule="nonzero" fill="#ec6521" d="m270.0625,127.89063l-4.14453,31.98046l-64.27344,-45.4375l68.42188,13.46094l-0.00391,-0.0039"/>
   <path id="svg_147" fill-rule="nonzero" fill="#ed6d2d" d="m294.02734,153.32813l-19.36328,15.01171l106.61719,8.10938l-87.25,-23.125l-0.00391,0.00391"/>
   <path id="svg_148" fill-rule="nonzero" fill="#ec6521" d="m294.02734,153.32813l-19.36328,15.01171l-4.59765,-40.44531l23.96484,25.42969l-0.00391,0.00391"/>
   <path id="svg_149" fill-rule="nonzero" fill="#ed6d2d" d="m385.68359,131.78516l-4.40234,44.66406l-87.25,-23.125l91.65234,-21.53906"/>
   <path id="svg_150" fill-rule="nonzero" fill="#ec6521" d="m41.06641,201.10547l-24.76172,24.05078l95.89062,8.89844l-71.1289,-32.94922"/>
   <path id="svg_151" fill-rule="nonzero" fill="#f25f15" d="m105.96094,198.45703l6.23437,35.59766l13.78125,-21.29297l-20.01562,-14.30469"/>
   <path id="svg_152" fill-rule="nonzero" fill="#f1570a" d="m105.96094,198.45703l6.23437,35.59766l-71.1289,-32.94922l64.89453,-2.64844"/>
   <path id="svg_153" fill-rule="nonzero" fill="#f25f15" d="m124.01563,203.38672l1.96093,9.375l55.52344,38.60547l-57.48828,-47.97656l0.00391,-0.00391"/>
   <path id="svg_154" fill-rule="nonzero" fill="#f1570a" d="m124.01563,203.38672l1.96093,9.375l-20.01562,-14.30469l18.05078,4.9336l0.00391,-0.00391"/>
   <path id="svg_155" fill-rule="nonzero" fill="#f25f15" d="m199.52734,182.49219l-18.02734,68.875l74.55078,-27.1875l-56.52344,-41.6836l0,-0.0039"/>
   <path id="svg_156" fill-rule="nonzero" fill="#f1570a" d="m199.52734,182.49219l-18.02734,68.875l-57.48828,-47.97656l75.51562,-20.89454l0,-0.0039"/>
   <path id="svg_157" fill-rule="nonzero" fill="#f25f15" d="m265.91797,159.875l-9.86719,64.30469l-8.85937,9.07422l18.72656,-73.38282l0,0.00391"/>
   <path id="svg_158" fill-rule="nonzero" fill="#f1570a" d="m265.91797,159.875l-9.86719,64.30469l-56.52344,-41.6836l66.39063,-22.625l0,0.00391"/>
   <path id="svg_159" fill-rule="nonzero" fill="#f25f15" d="m274.66406,168.33984l-27.47265,64.91407l97.47656,-13.17578l-70.00391,-51.73829"/>
   <path id="svg_160" fill-rule="nonzero" fill="#f1570a" d="m274.66406,168.33984l-27.47265,64.91407l18.72656,-73.38282l8.74609,8.46875"/>
   <path id="svg_161" fill-rule="nonzero" fill="#f25f15" d="m381.28125,176.44922l-36.61328,43.62891l41.62109,30.16796l-5.00781,-73.79687"/>
   <path id="svg_162" fill-rule="nonzero" fill="#f1570a" d="m381.28125,176.44922l-36.61328,43.62891l-70.00391,-51.73829l106.61719,8.10938"/>
   <path id="svg_163" fill-rule="nonzero" fill="#f25f15" d="m387.03516,160.70703l-0.7461,89.53906l25.47657,-0.8789l-24.73047,-88.65625l0,-0.00391"/>
   <path id="svg_164" fill-rule="nonzero" fill="#f1570a" d="m387.03516,160.70703l-0.7461,89.53906l-5.00781,-73.79687l5.75391,-15.73828l0,-0.00391"/>
   <path id="svg_165" fill-rule="nonzero" fill="#f25f15" d="m444.66406,199.16016l-32.89843,50.20703l37.03515,-50.06641l-4.13672,-0.14062"/>
   <path id="svg_166" fill-rule="nonzero" fill="#f1570a" d="m444.66406,199.16016l-32.89843,50.20703l-24.73047,-88.65625l57.6289,38.44922"/>
   <path id="svg_167" fill-rule="nonzero" fill="#f25f15" d="m0,281.72266l68.94141,-26.17188l-52.63672,-30.39453l-16.30469,27.85547l0,28.71094"/>
   <path id="svg_168" fill-rule="nonzero" fill="#f1570a" d="m112.19141,234.05078l-43.25,21.5l53.60937,-14.76172l-10.35547,-6.73437l-0.0039,-0.00391"/>
   <path id="svg_169" fill-rule="nonzero" fill="#f25f15" d="m112.19141,234.05078l-43.25,21.5l-52.63672,-30.39453l95.89062,8.89844l-0.0039,-0.00391"/>
   <path id="svg_170" fill-rule="nonzero" fill="#f1570a" d="m125.97656,212.76172l-3.42578,28.02734l63.72656,24.54297l-60.30078,-52.57031"/>
   <path id="svg_171" fill-rule="nonzero" fill="#df520b" d="m125.97656,212.76172l-3.42578,28.02734l-10.35547,-6.73437l13.78125,-21.29297"/>
   <path id="svg_172" fill-rule="nonzero" fill="#c64a0c" d="m181.5,251.36328l4.77734,13.96875l32.58204,0.10156l-37.35938,-14.0664l0,-0.00391"/>
   <path id="svg_173" fill-rule="nonzero" fill="#df520b" d="m181.5,251.36328l4.77734,13.96875l-60.30078,-52.57031l55.52344,38.60547l0,-0.00391"/>
   <path id="svg_174" fill-rule="nonzero" fill="#c64a0c" d="m256.05469,224.17969l-37.19531,41.2539l63.03906,-10.40625l-25.84766,-30.84765l0.00391,0"/>
   <path id="svg_175" fill-rule="nonzero" fill="#df520b" d="m256.05469,224.17969l-37.19531,41.2539l-37.35938,-14.0664l74.55078,-27.1875l0.00391,0"/>
   <path id="svg_176" fill-rule="nonzero" fill="#c64a0c" d="m247.1875,233.25391l34.71094,21.77343l30.94531,-8.04687l-65.65234,-13.72656l-0.00391,0"/>
   <path id="svg_177" fill-rule="nonzero" fill="#df520b" d="m247.1875,233.25391l34.71094,21.77343l-25.84766,-30.84765l-8.85937,9.07422l-0.00391,0"/>
   <path id="svg_178" fill-rule="nonzero" fill="#c64a0c" d="m344.66797,223.15114l-31.82422,26.90625l68.88672,7.96094l-37.0625,-34.86328l0,-0.00391"/>
   <path id="svg_179" fill-rule="nonzero" fill="#df520b" d="m344.66797,220.07422l-31.82422,26.90625l-65.65234,-13.72656l97.47656,-13.17578l0,-0.00391"/>
   <path id="svg_180" fill-rule="nonzero" fill="#c64a0c" d="m386.29297,250.24609l-4.5625,4.69532l-11.33984,18.6914l15.89843,-23.38672l0.00391,0"/>
   <path id="svg_181" fill-rule="nonzero" fill="#df520b" d="m386.29297,250.24609l-4.5625,4.69532l-37.0625,-34.86328l41.62109,30.16796l0.00391,0"/>
   <path id="svg_182" fill-rule="nonzero" fill="#c64a0c" d="m415.61178,260.14031l-41.375,24.26172l105.01562,-22.1289l-63.64062,-2.13672l0,0.0039"/>
   <path id="svg_183" fill-rule="nonzero" fill="#df520b" d="m411.76563,252.44801l-41.375,24.26172l15.89843,-23.38672l25.47657,-0.8789l0,0.0039"/>
   <path id="svg_184" fill-rule="nonzero" fill="#c64a0c" d="m448.80078,199.30469l26.60547,52.19922l-63.64062,-2.13672l37.03515,-50.06641l0,0.00391"/>
   <path id="svg_185" fill-rule="nonzero" fill="#df520b" d="m68.94141,255.54688l-59.83985,37.54687l70.91016,-10.41797l-11.07031,-27.125l0,-0.0039"/>
   <path id="svg_186" fill-rule="nonzero" fill="#c64a0c" d="m0,281.72266l0,10.4375l9.10156,0.93359l59.82422,-37.53906l-68.92578,26.16797"/>
   <path id="svg_187" fill-rule="nonzero" fill="#df520b" d="m122.55078,240.78906l-42.53906,41.88672l79.32422,46.36719l-36.78516,-88.25391"/>
   <path id="svg_188" fill-rule="nonzero" fill="#c64a0c" d="m122.55078,240.78906l-42.53906,41.88672l-11.07031,-27.125l53.60937,-14.76172"/>
   <path id="svg_189" fill-rule="nonzero" fill="#b4450d" d="m186.28516,265.33203l-26.94922,63.71094l-0.89063,-8.75781l27.83203,-54.95313l0.00782,0"/>
   <path id="svg_190" fill-rule="nonzero" fill="#c64a0c" d="m186.28516,265.33203l-26.94922,63.71094l-36.78516,-88.25391l63.72656,24.54297l0.00782,0"/>
   <path id="svg_191" fill-rule="nonzero" fill="#b4450d" d="m218.86328,265.43359l-60.41797,54.85157l90.57422,-25.41797l-30.16015,-29.4336l0.0039,0"/>
   <path id="svg_192" fill-rule="nonzero" fill="#a73f0b" d="m218.86328,265.43359l-60.41797,54.85157l27.83203,-54.95313l32.58204,0.10156l0.0039,0"/>
   <path id="svg_193" fill-rule="nonzero" fill="#b4450d" d="m281.90234,258.10036l-32.88281,39.84375l58.78125,15.50781l-25.90234,-55.34766l0.0039,-0.0039"/>
   <path id="svg_194" fill-rule="nonzero" fill="#a73f0b" d="m281.90234,255.02344l-32.88281,39.84375l-30.16015,-29.4336l63.03906,-10.40625l0.0039,-0.0039"/>
   <path id="svg_195" fill-rule="nonzero" fill="#b4450d" d="m315.15144,253.1304l-5.04297,63.39844l32.5625,-3.5l-27.51953,-59.89453l0,-0.00391"/>
   <path id="svg_196" fill-rule="nonzero" fill="#a73f0b" d="m312.84375,246.97656l-5.04297,63.39844l-25.90234,-55.34766l30.94531,-8.04687l0,-0.00391"/>
   <path id="svg_197" fill-rule="nonzero" fill="#b4450d" d="m383.26893,261.86448l-41.36719,51.93359l53.07813,-21.16016l-11.71094,-30.77343"/>
   <path id="svg_198" fill-rule="nonzero" fill="#a73f0b" d="m381.73047,261.86448l-41.36719,51.93359l-27.51953,-59.89453l68.88672,7.96094"/>
   <path id="svg_199" fill-rule="nonzero" fill="#b4450d" d="m393.47144,274.39423l23.04688,12.08984l23.48828,3.41016l-46.53906,-15.49219l0.0039,-0.00781"/>
   <path id="svg_200" fill-rule="nonzero" fill="#a73f0b" d="m393.47144,299.77883l23.04688,12.08984l-11.71094,-30.77343l-11.33984,18.6914l0.0039,-0.00781"/>
   <path id="svg_201" fill-rule="nonzero" fill="#b4450d" d="m483.09855,333.04231l-58.47656,37.62109l49.29687,13.29297l9.17969,-50.91406"/>
   <path id="svg_202" fill-rule="nonzero" fill="#a73f0b" d="m503.09854,319.19617l-58.47656,37.62109l-46.53906,-15.49219l105.01562,-22.1289"/>
   <path id="svg_203" fill-rule="nonzero" fill="#b4450d" d="m80.00781,282.67578l-58.36718,42.85547l68.8789,11.33594l-10.50781,-54.19141l-0.00391,0"/>
   <path id="svg_204" fill-rule="nonzero" fill="#a73f0b" d="m80.00781,282.67578l-58.36718,42.85547l-12.53907,-32.4375l70.91016,-10.41797l-0.00391,0"/>
   <path id="svg_205" fill-rule="nonzero" fill="#b4450d" d="m159.33594,329.03516l-68.81641,7.83203l57.1211,16.375l11.69531,-24.19922l0,-0.00781"/>
   <path id="svg_206" fill-rule="nonzero" fill="#a73f0b" d="m159.33594,329.03516l-68.81641,7.83203l-10.50781,-54.19141l79.32422,46.36719l0,-0.00781"/>
   <path id="svg_207" fill-rule="nonzero" fill="#b4450d" d="m158.44531,320.28516l-10.80468,32.95703l31.75,-24.81641l-20.94532,-8.14062"/>
   <path id="svg_208" fill-rule="nonzero" fill="#a73f0b" d="m158.44531,320.28516l-10.80468,32.95703l11.69531,-24.19922l-0.89063,-8.75781"/>
   <path id="svg_209" fill-rule="nonzero" fill="#94390b" d="m251.33113,295.63642l-69.63281,33.55859l64.98046,23.58203l4.64844,-57.14062l0.00391,0"/>
   <path id="svg_210" fill-rule="nonzero" fill="#802f07" d="m249.79267,295.63642l-69.63281,33.55859l-20.94532,-8.14062l90.57422,-25.41797l0.00391,0"/>
   <path id="svg_211" fill-rule="nonzero" fill="#94390b" d="m307.80078,329.60576l-63.42969,41.63281l72.44922,-10.54297l-9.01953,-31.08984"/>
   <path id="svg_212" fill-rule="nonzero" fill="#802f07" d="m310.8777,312.68269l-63.42969,41.63281l4.64844,-57.14062l58.78125,15.50781"/>
   <path id="svg_213" fill-rule="nonzero" fill="#94390b" d="m345.74789,392.25956l-23.54297,34.58984l31.77344,17.61719l-8.23047,-52.20703"/>
   <path id="svg_214" fill-rule="nonzero" fill="#802f07" d="m341.90174,321.49037l-23.54297,34.58984l-9.01953,-31.08984l32.5625,-3.5"/>
   <path id="svg_215" fill-rule="nonzero" fill="#94390b" d="m403.4453,371.0994l-44.85156,73.36719l22.65625,-23.33203l22.19141,-50.03516l0.0039,0"/>
   <path id="svg_216" fill-rule="nonzero" fill="#802f07" d="m395.753,304.17636l-44.85156,73.36719l-8.23047,-52.20703l53.07813,-21.16016l0.0039,0"/>
   <path id="svg_217" fill-rule="nonzero" fill="#94390b" d="m432.31429,390.66339l-45.67969,46.625l53.67969,5.01563l-8,-51.64063"/>
   <path id="svg_218" fill-rule="nonzero" fill="#802f07" d="m425.39122,320.66344l-45.67969,46.625l22.19141,-50.03516l23.48828,3.41016"/>
   <path id="svg_219" fill-rule="nonzero" fill="#94390b" d="m21.64063,325.52344l12.48828,68.61719l60.71484,-29.46485l-73.20312,-39.14453l0,-0.00781"/>
   <path id="svg_220" fill-rule="nonzero" fill="#802f07" d="m90.51953,336.86719l4.32422,27.80859l56.3125,42.41797l-60.63672,-70.22656"/>
   <path id="svg_221" fill-rule="nonzero" fill="#94390b" d="m90.51953,336.86719l4.32422,27.80859l-73.20312,-39.14453l68.8789,11.33594"/>
   <path id="svg_222" fill-rule="nonzero" fill="#802f07" d="m147.64453,356.31911l3.51172,53.85156l38.83203,16.41406l-42.34765,-70.26562l0.0039,0"/>
   <path id="svg_223" fill-rule="nonzero" fill="#94390b" d="m147.64453,353.24219l3.51172,53.85156l-60.63672,-70.22656l57.1211,16.375l0.0039,0"/>
   <path id="svg_224" fill-rule="nonzero" fill="#802f07" d="m183.23287,338.42577l10.60156,95.08203l43.64453,-43.04297l-54.24218,-52.03906l-0.00391,0"/>
   <path id="svg_225" fill-rule="nonzero" fill="#94390b" d="m179.38672,328.42578l10.60156,95.08203l-42.34765,-70.26562l31.75,-24.81641l-0.00391,0"/>
   <path id="svg_226" fill-rule="nonzero" fill="#802f07" d="m247.44411,392.0156l-10.73438,28.44921l48.57813,22.66797l-37.83985,-51.125l-0.0039,0.00782"/>
   <path id="svg_227" fill-rule="nonzero" fill="#94390b" d="m244.36719,355.09255l-10.73438,28.44921l-54.24218,-52.03906l64.98046,23.58203l-0.0039,0.00782"/>
   <path id="svg_228" fill-rule="nonzero" fill="#802f07" d="m325.28184,434.5417l-34.60937,61.66797l27.42969,-15.16797l7.17968,-46.5"/>
   <path id="svg_229" fill-rule="nonzero" fill="#802106" d="m334.51261,384.54173l-34.60937,61.66797l-37.83985,-51.125l72.44922,-10.54297"/>
   <path id="svg_230" fill-rule="nonzero" fill="#771f07" d="m94.08233,380.82962l-65.66015,77.83985l76.8789,-6.22266l-11.22656,-71.61719l0.00781,0"/>
   <path id="svg_231" fill-rule="nonzero" fill="#802106" d="m94.85156,367.7527l-65.66015,77.83985l4.9375,-48.375l60.71484,-29.46485l0.00781,0"/>
   <path id="svg_232" fill-rule="nonzero" fill="#771f07" d="m149.60998,416.33232l-45.07813,29.19141l25.98438,13.40625l19.10156,-42.60547l-0.00781,0.00781"/>
   <path id="svg_233" fill-rule="nonzero" fill="#802106" d="m151.14844,410.17848l-45.07813,29.19141l-11.22656,-71.61719l56.3125,42.41797l-0.00781,0.00781"/>
   <path id="svg_234" fill-rule="nonzero" fill="#771f07" d="m179.98829,449.66164l-57.93359,26.19141l36.15625,3.71875l21.77734,-29.91016"/>
   <path id="svg_235" fill-rule="nonzero" fill="#802106" d="m193.83443,433.5078l-57.93359,26.19141l19.10156,-42.60547l38.83203,16.41406"/>
   <path id="svg_236" fill-rule="nonzero" fill="#771f07" d="m233.63672,423.54173l-65.42578,72.95313l50.5,-26.31641l14.92187,-46.63672l0.00391,0"/>
   <path id="svg_237" fill-rule="nonzero" fill="#802106" d="m235.94441,398.92636l-65.42578,72.95313l21.77734,-29.91016l43.64453,-43.04297l0.00391,0"/>
   <path id="svg_238" fill-rule="nonzero" fill="#771f07" d="m286.82632,476.20968l-63.5,23.96875l14.92187,-46.63672l48.57813,22.66797"/>
   <path id="svg_239" fill-rule="nonzero" fill="#802106" d="m106.07031,479.36986l-56.1914,46.06641l92.61718,5.86718l-36.42578,-51.93359"/>
   <path id="svg_240" fill-rule="nonzero" fill="#771f07" d="m108.378,454.75449l-56.1914,46.06641l-20.6875,-39.84375l76.8789,-6.22266"/>
   <path id="svg_241" fill-rule="nonzero" fill="#802106" d="m147.43539,496.62226l10.44531,38.52734l-36.42578,-51.93359l25.98438,13.40625l-0.00391,0"/>
   <path id="svg_242" fill-rule="nonzero" fill="#771f07" d="m224.09555,479.41704l-20.5625,55.26562l-29.9375,-28.95703l50.5,-26.31641l0,0.00782"/>
  </g>
 </g>
</svg>