<?xml version="1.0" encoding="UTF-8" standalone="no"?>
<svg
   width="512"
   height="512"
   version="1.1"
   id="svg342"
   sodipodi:docname="icon-error.svg"
   inkscape:version="1.2.2 (b0a8486541, 2022-12-01)"
   xmlns:inkscape="http://www.inkscape.org/namespaces/inkscape"
   xmlns:sodipodi="http://sodipodi.sourceforge.net/DTD/sodipodi-0.dtd"
   xmlns="http://www.w3.org/2000/svg"
   xmlns:svg="http://www.w3.org/2000/svg">
  <defs
     id="defs346" />
  <sodipodi:namedview
     id="namedview344"
     pagecolor="#ffffff"
     bordercolor="#000000"
     borderopacity="0.25"
     inkscape:showpageshadow="2"
     inkscape:pageopacity="0.0"
     inkscape:pagecheckerboard="0"
     inkscape:deskcolor="#d1d1d1"
     showgrid="false"
     inkscape:zoom="1.0283264"
     inkscape:cx="251.86556"
     inkscape:cy="292.70862"
     inkscape:window-width="1920"
     inkscape:window-height="994"
     inkscape:window-x="3840"
     inkscape:window-y="0"
     inkscape:window-maximized="1"
     inkscape:current-layer="svg_111" />
  <mask
     id="mask">
    <path
       d="m80.84766,32.9043c-2.76232,-0.02142 -5.53768,0.66773 -8.04297,2.07617c-4.96473,2.83218 -8.0293,8.10835 -8.0293,13.83594l0,463.18359c0,0 3.06457,0 8.0293,0c2.45787,0 5.1832,0 7.90625,0c2.80054,0 5.6016,0 8.10742,0l350.58008,0c72.60156,0 7.82617,-250.37795 7.82617,-256.01172c0,-5.63376 -2.97058,-10.84746 -7.82617,-13.72656l-350.58008,-207.17188c-2.4584,-1.4319 -5.20839,-2.16413 -7.9707,-2.18554z"
       fill="white"
       id="triangle" />
  </mask>
  <g
     id="g203">
    <title
       id="title200">background</title>
    <rect
       fill="none"
       id="canvas_background"
       height="602"
       width="802"
       y="-1"
       x="-1" />
  </g>
  <g
     id="g340"
     transform="matrix(1.0480032,0,0,1.0480032,-54.855559,-25.535929)">
    <title
       id="title205">Layer 1</title>
    <path
       id="svg_1"
       mask="url(#mask)"
       fill="url(#gradient)"
       d="M 0,0 H 512 V 512 H 0 Z" />
    <g
       id="svg_111"
       mask="url(#mask)">
      <path
         id="svg_112"
         fill-rule="nonzero"
         fill="#ef8a57"
         d="M 39.886454,2.9938989 -4.566676,67.001719 53.234104,27.716559 39.882544,2.9938989 h 0.0039" />
      <path
         id="svg_113"
         fill-rule="nonzero"
         fill="#ef7f48"
         d="m 60.851294,-15.970941 -7.61719,43.6875 55.777346,15.05078 -35.171876,-58.73828 h -12.98828" />
      <path
         id="svg_114"
         fill-rule="nonzero"
         fill="#ef8a57"
         d="m 52.554424,-15.970941 -12.67188,18.9648399 13.35156,24.7226601 7.61719,-43.6875 h -8.29687" />
      <path
         id="svg_115"
         fill-rule="nonzero"
         fill="#ef7f48"
         d="m 99.003644,16.544689 10.007806,26.22265 50.28906,4.9375 -60.296866,-31.16406 v 0.0039" />
      <path
         id="svg_116"
         fill-rule="nonzero"
         fill="#ef8a57"
         d="m 99.003644,16.540779 -23.22657,-32.51172 h -1.9375 l 35.171876,58.73828 -10.007806,-26.22265 v -0.0039" />
      <path
         id="svg_117"
         fill-rule="nonzero"
         fill="#ef7f48"
         d="m 157.4177,21.911869 1.88281,25.79297 -60.296866,-31.16406 58.417956,5.36719 -0.004,0.0039" />
      <path
         id="svg_118"
         fill-rule="nonzero"
         fill="#ef8a57"
         d="m -20.761986,83.497809 v 14.14844 l 84.58203,11.964841 -68.38672,-42.609371 v -0.0039 l -16.19531,16.5" />
      <path
         id="svg_119"
         fill-rule="nonzero"
         fill="#ef7f48"
         d="m 53.238014,27.712649 10.58203,81.898441 -6.09765,-55.804691 -4.48829,-26.08984 0.0039,-0.0039" />
      <path
         id="svg_120"
         fill-rule="nonzero"
         fill="#ef8a57"
         d="m 53.238014,27.712649 10.58203,81.898441 -68.38672,-42.609371 57.80078,-39.28516 0.0039,-0.0039" />
      <path
         id="svg_121"
         fill-rule="nonzero"
         fill="#ef7f48"
         d="m 109.01145,42.763439 -51.289056,11.04296 89.781246,33.59766 -38.49219,-44.63672 v -0.0039" />
      <path
         id="svg_122"
         fill-rule="nonzero"
         fill="#ef8a57"
         d="m 109.01145,42.763439 -51.289056,11.04296 -4.48829,-26.08984 55.777346,15.05078 v -0.0039" />
      <path
         id="svg_123"
         fill-rule="nonzero"
         fill="#ef7f48"
         d="m 159.30442,47.704839 -11.80078,39.69922 24.99218,-7.50391 -13.19531,-32.19531 h 0.004" />
      <path
         id="svg_124"
         fill-rule="nonzero"
         fill="#ef8a57"
         d="m 159.30442,47.704839 -11.80078,39.69922 -38.49219,-44.63672 50.28906,4.9375 h 0.004" />
      <path
         id="svg_125"
         fill-rule="nonzero"
         fill="#ef7f48"
         d="m 173.09739,19.388439 -0.60157,60.51171 -13.19531,-32.19531 13.80078,-28.3164 h -0.004" />
      <path
         id="svg_126"
         fill-rule="nonzero"
         fill="#ef8a57"
         d="m 63.820044,109.61109 -21.45312,28.39453 -5.62891,-37.76172 27.08203,9.36719" />
      <path
         id="svg_127"
         fill-rule="nonzero"
         fill="#ef7f48"
         d="m 63.820044,109.61109 -84.58203,-11.964841 v 5.085941 l 63.12891,35.27343 21.45312,-28.39453" />
      <path
         id="svg_128"
         fill-rule="nonzero"
         fill="#ef8a57"
         d="M 57.722394,53.806399 36.738014,100.2439 81.191144,148.28687 57.722394,53.806399" />
      <path
         id="svg_129"
         fill-rule="nonzero"
         fill="#ef7f48"
         d="m 57.722394,53.806399 -20.98438,46.437501 27.08203,9.36719 -6.09765,-55.804691" />
      <path
         id="svg_130"
         fill-rule="nonzero"
         fill="#ef8a57"
         d="m 147.50754,87.404059 -66.316396,60.882811 50.363276,-53.574221 15.94922,-7.30859 h 0.004" />
      <path
         id="svg_131"
         fill-rule="nonzero"
         fill="#ed6d2d"
         d="M 147.50754,87.404059 81.191144,148.28687 57.722394,53.806399 147.50364,87.404059 h 0.004" />
      <path
         id="svg_132"
         fill-rule="nonzero"
         fill="#ec6521"
         d="m 172.49582,79.896249 -40.9414,14.8164 49.32812,3.75 -8.38672,-18.5625 v -0.0039" />
      <path
         id="svg_133"
         fill-rule="nonzero"
         fill="#ed6d2d"
         d="m 172.49582,79.896249 -40.9414,14.8164 15.94922,-7.30859 24.99218,-7.50391 v -0.0039" />
      <path
         id="svg_134"
         fill-rule="nonzero"
         fill="#ec6521"
         d="m 200.46848,61.325939 -19.58594,37.13671 68.42188,13.460941 -48.83203,-50.593751 -0.004,-0.0039" />
      <path
         id="svg_135"
         fill-rule="nonzero"
         fill="#ed6d2d"
         d="m 200.46848,61.325939 -19.58594,37.13671 -8.38672,-18.5625 27.97657,-18.57031 -0.004,-0.0039" />
      <path
         id="svg_136"
         fill-rule="nonzero"
         fill="#ec6521"
         d="m 356.68723,110.33765 -83.41797,27.01563 91.65234,-21.53906 -8.23046,-5.47657 h -0.004" />
      <path
         id="svg_137"
         fill-rule="nonzero"
         fill="#ed6d2d"
         d="m 36.741924,100.2439 -16.4375,84.89063 64.89453,-2.64844 -48.46094,-82.24219 h 0.0039" />
      <path
         id="svg_138"
         fill-rule="nonzero"
         fill="#ec6521"
         d="m 36.741924,100.2439 -16.4375,84.89063 22.0625,-47.12891 -5.62891,-37.76172 h 0.0039" />
      <path
         id="svg_139"
         fill-rule="nonzero"
         fill="#ed6d2d"
         d="m 81.195044,148.28687 4.00391,34.19922 18.050776,4.9336 -22.058586,-39.13282 h 0.0039" />
      <path
         id="svg_140"
         fill-rule="nonzero"
         fill="#ec6521"
         d="m 81.195044,148.28687 4.00391,34.19922 -48.46094,-82.24219 44.45313,48.04297 h 0.0039" />
      <path
         id="svg_141"
         fill-rule="nonzero"
         fill="#ed6d2d"
         d="M 131.55442,94.712649 103.24973,187.41969 178.76535,166.52515 131.55442,94.712649" />
      <path
         id="svg_142"
         fill-rule="nonzero"
         fill="#ec6521"
         d="M 131.55442,94.712649 103.24973,187.41969 81.191144,148.28687 131.55442,94.712649" />
      <path
         id="svg_143"
         fill-rule="nonzero"
         fill="#ed6d2d"
         d="m 180.88254,98.458749 -2.11719,68.066401 66.39063,-22.625 -64.27344,-45.437501 v -0.0039" />
      <path
         id="svg_144"
         fill-rule="nonzero"
         fill="#ec6521"
         d="m 180.88254,98.458749 -2.11719,68.066401 -47.21093,-71.812501 49.32812,3.75 v -0.0039" />
      <path
         id="svg_145"
         fill-rule="nonzero"
         fill="#ed6d2d"
         d="m 249.30051,111.91969 -4.14453,31.98046 8.74609,8.46875 -4.59765,-40.44531 -0.004,-0.004" />
      <path
         id="svg_146"
         fill-rule="nonzero"
         fill="#ec6521"
         d="m 249.30051,111.91969 -4.14453,31.98046 -64.27344,-45.437501 68.42188,13.460941 -0.004,-0.004" />
      <path
         id="svg_147"
         fill-rule="nonzero"
         fill="#ed6d2d"
         d="m 273.26535,137.35719 -19.36328,15.01171 106.61719,8.10938 -87.25,-23.125 -0.004,0.004" />
      <path
         id="svg_148"
         fill-rule="nonzero"
         fill="#ec6521"
         d="m 273.26535,137.35719 -19.36328,15.01171 -4.59765,-40.44531 23.96484,25.42969 -0.004,0.004" />
      <path
         id="svg_149"
         fill-rule="nonzero"
         fill="#ed6d2d"
         d="m 364.9216,115.81422 -4.40234,44.66406 -87.25,-23.125 91.65234,-21.53906" />
      <path
         id="svg_150"
         fill-rule="nonzero"
         fill="#ec6521"
         d="m 20.304424,185.13453 -24.76172,24.05078 95.89062,8.89844 -71.1289,-32.94922" />
      <path
         id="svg_151"
         fill-rule="nonzero"
         fill="#f25f15"
         d="m 85.198954,182.48609 6.23437,35.59766 13.781246,-21.29297 -20.015616,-14.30469" />
      <path
         id="svg_152"
         fill-rule="nonzero"
         fill="#f1570a"
         d="m 85.198954,182.48609 6.23437,35.59766 -71.1289,-32.94922 64.89453,-2.64844" />
      <path
         id="svg_153"
         fill-rule="nonzero"
         fill="#f25f15"
         d="m 103.25364,187.41578 1.96093,9.375 55.52344,38.60547 -57.48828,-47.97656 0.004,-0.004" />
      <path
         id="svg_154"
         fill-rule="nonzero"
         fill="#f1570a"
         d="m 103.25364,187.41578 1.96093,9.375 -20.015616,-14.30469 18.050776,4.9336 0.004,-0.004" />
      <path
         id="svg_155"
         fill-rule="nonzero"
         fill="#f25f15"
         d="m 178.76535,166.52125 -18.02734,68.875 74.55078,-27.1875 -56.52344,-41.6836 v -0.004" />
      <path
         id="svg_156"
         fill-rule="nonzero"
         fill="#f1570a"
         d="m 178.76535,166.52125 -18.02734,68.875 -57.48828,-47.97656 75.51562,-20.89454 v -0.004" />
      <path
         id="svg_157"
         fill-rule="nonzero"
         fill="#f25f15"
         d="m 245.15598,143.90406 -9.86719,64.30469 -8.85937,9.07422 18.72656,-73.38282 v 0.004" />
      <path
         id="svg_158"
         fill-rule="nonzero"
         fill="#f1570a"
         d="m 245.15598,143.90406 -9.86719,64.30469 -56.52344,-41.6836 66.39063,-22.625 v 0.004" />
      <path
         id="svg_159"
         fill-rule="nonzero"
         fill="#f25f15"
         d="m 253.90207,152.3689 -27.47265,64.91407 97.47656,-13.17578 -70.00391,-51.73829" />
      <path
         id="svg_160"
         fill-rule="nonzero"
         fill="#f1570a"
         d="m 253.90207,152.3689 -27.47265,64.91407 18.72656,-73.38282 8.74609,8.46875" />
      <path
         id="svg_161"
         fill-rule="nonzero"
         fill="#f25f15"
         d="m 361.7385,162.61178 -36.61328,43.62891 41.62109,30.16796 -5.00781,-73.79687" />
      <path
         id="svg_162"
         fill-rule="nonzero"
         fill="#f1570a"
         d="m 360.51926,160.47828 -36.61328,43.62891 -70.00391,-51.73829 106.61719,8.10938" />
      <path
         id="svg_163"
         fill-rule="nonzero"
         fill="#f25f15"
         d="m 368.71166,161.80424 -0.7461,89.53906 25.47657,-0.8789 -24.73047,-88.65625 v -0.004" />
      <path
         id="svg_164"
         fill-rule="nonzero"
         fill="#f1570a"
         d="m 366.27317,144.73609 -0.7461,89.53906 -5.00781,-73.79687 5.75391,-15.73828 v -0.004" />
      <path
         id="svg_165"
         fill-rule="nonzero"
         fill="#f25f15"
         d="m 423.90207,183.18922 -32.89843,50.20703 37.03515,-50.06641 -4.13672,-0.14062" />
      <path
         id="svg_166"
         fill-rule="nonzero"
         fill="#f1570a"
         d="m 426.03563,184.40838 -32.89843,50.20703 -24.73047,-88.65625 57.6289,38.44922" />
      <path
         id="svg_167"
         fill-rule="nonzero"
         fill="#f25f15"
         d="m -20.761986,265.75172 68.94141,-26.17188 -52.63672,-30.39453 -16.30469,27.85547 v 28.71094" />
      <path
         id="svg_168"
         fill-rule="nonzero"
         fill="#f1570a"
         d="m 91.429424,218.07984 -43.25,21.5 53.609366,-14.76172 -10.355466,-6.73437 -0.0039,-0.004" />
      <path
         id="svg_169"
         fill-rule="nonzero"
         fill="#f25f15"
         d="m 91.429424,218.07984 -43.25,21.5 -52.63672,-30.39453 95.89062,8.89844 -0.0039,-0.004" />
      <path
         id="svg_170"
         fill-rule="nonzero"
         fill="#f1570a"
         d="m 105.21457,196.79078 -3.42578,28.02734 63.72656,24.54297 -60.30078,-52.57031" />
      <path
         id="svg_171"
         fill-rule="nonzero"
         fill="#df520b"
         d="m 105.21457,196.79078 -3.42578,28.02734 -10.355466,-6.73437 13.781246,-21.29297" />
      <path
         id="svg_172"
         fill-rule="nonzero"
         fill="#c64a0c"
         d="m 160.73801,235.39234 4.77734,13.96875 32.58204,0.10156 -37.35938,-14.0664 v -0.004" />
      <path
         id="svg_173"
         fill-rule="nonzero"
         fill="#df520b"
         d="m 160.73801,235.39234 4.77734,13.96875 -60.30078,-52.57031 55.52344,38.60547 v -0.004" />
      <path
         id="svg_174"
         fill-rule="nonzero"
         fill="#c64a0c"
         d="m 238.94998,207.90397 -37.19531,41.2539 63.03906,-10.40625 -25.84766,-30.84765 h 0.004" />
      <path
         id="svg_175"
         fill-rule="nonzero"
         fill="#df520b"
         d="m 235.2927,208.20875 -37.19531,41.2539 -37.35938,-14.0664 74.55078,-27.1875 h 0.004" />
      <path
         id="svg_176"
         fill-rule="nonzero"
         fill="#c64a0c"
         d="m 226.42551,217.28297 34.71094,21.77343 30.94531,-8.04687 -65.65234,-13.72656 h -0.004" />
      <path
         id="svg_177"
         fill-rule="nonzero"
         fill="#df520b"
         d="m 226.42551,217.28297 34.71094,21.77343 -25.84766,-30.84765 -8.85937,9.07422 h -0.004" />
      <path
         id="svg_178"
         fill-rule="nonzero"
         fill="#c64a0c"
         d="m 328.47803,214.19031 -31.82422,26.90625 68.88672,7.96094 -37.0625,-34.86328 v -0.004" />
      <path
         id="svg_179"
         fill-rule="nonzero"
         fill="#df520b"
         d="m 323.90598,204.10328 -31.82422,26.90625 -65.65234,-13.72656 97.47656,-13.17578 v -0.004" />
      <path
         id="svg_182"
         fill-rule="nonzero"
         fill="#c64a0c"
         d="m 421.67131,260.62796 -41.375,24.26172 c 50.24619,-9.19073 88.82611,-16.9926 105.01562,-22.1289 l -63.64062,-2.13672 v 0.004"
         sodipodi:nodetypes="ccccc" />
      <path
         id="svg_183"
         fill-rule="nonzero"
         fill="#df520b"
         d="m 424.22585,243.48723 -41.375,24.26172 15.89843,-23.38672 25.47657,-0.8789 v 0.004" />
      <path
         id="svg_184"
         fill-rule="nonzero"
         fill="#c64a0c"
         d="m 433.22023,185.46728 26.60547,52.19922 -63.64062,-2.13672 37.03515,-50.06641 v 0.004" />
      <path
         id="svg_185"
         fill-rule="nonzero"
         fill="#df520b"
         d="m 48.179424,239.57594 -59.83985,37.54687 70.91016,-10.41797 -11.07031,-27.125 v -0.004" />
      <path
         id="svg_186"
         fill-rule="nonzero"
         fill="#c64a0c"
         d="m -20.761986,265.75172 v 10.4375 l 9.10156,0.93359 59.82422,-37.53906 -68.92578,26.16797" />
      <path
         id="svg_187"
         fill-rule="nonzero"
         fill="#df520b"
         d="M 96.302422,226.64684 53.763368,268.53356 133.08758,314.90075 96.302422,226.64684" />
      <path
         id="svg_188"
         fill-rule="nonzero"
         fill="#c64a0c"
         d="m 101.78879,224.81812 -42.539056,41.88672 -11.07031,-27.125 53.609366,-14.76172" />
      <path
         id="svg_189"
         fill-rule="nonzero"
         fill="#b4450d"
         d="m 165.52317,249.36109 -26.94922,63.71094 -0.89063,-8.75781 27.83203,-54.95313 h 0.008" />
      <path
         id="svg_190"
         fill-rule="nonzero"
         fill="#c64a0c"
         d="m 165.2187,251.49462 -26.94922,63.71094 -36.78516,-88.25391 63.72656,24.54297 h 0.008" />
      <path
         id="svg_191"
         fill-rule="nonzero"
         fill="#b4450d"
         d="m 202.36841,264.09255 -60.41797,54.85157 90.57422,-25.41797 -30.16015,-29.4336 h 0.004" />
      <path
         id="svg_192"
         fill-rule="nonzero"
         fill="#a73f0b"
         d="m 201.75857,251.29137 -60.41797,54.85157 27.83203,-54.95313 32.58204,0.10156 h 0.004" />
      <path
         id="svg_193"
         fill-rule="nonzero"
         fill="#b4450d"
         d="m 266.3218,250.35877 -32.88281,39.84375 58.78125,15.50781 -25.90234,-55.34766 0.004,-0.004" />
      <path
         id="svg_194"
         fill-rule="nonzero"
         fill="#a73f0b"
         d="m 261.14035,241.7956 -32.88281,39.84375 -30.16015,-29.4336 63.03906,-10.40625 0.004,-0.004" />
      <path
         id="svg_195"
         fill-rule="nonzero"
         fill="#b4450d"
         d="m 302.31385,246.60791 -5.04297,63.39844 32.5625,-3.5 -27.51953,-59.89453 v -0.004" />
      <path
         id="svg_196"
         fill-rule="nonzero"
         fill="#a73f0b"
         d="m 297.56813,232.83434 -5.04297,63.39844 -25.90234,-55.34766 30.94531,-8.04687 v -0.004" />
      <path
         id="svg_197"
         fill-rule="nonzero"
         fill="#b4450d"
         d="m 385.06135,280.02985 -41.36719,51.93359 53.07813,-21.16016 -11.71094,-30.77343" />
      <path
         id="svg_198"
         fill-rule="nonzero"
         fill="#a73f0b"
         d="m 380.475,258.38984 -41.36719,51.93359 -27.51953,-59.89453 68.88672,7.96094" />
      <path
         id="svg_200"
         fill-rule="nonzero"
         fill="#a73f0b"
         d="m 409.8934,313.67713 23.04688,12.08984 -11.71094,-30.77343 -11.33984,18.6914 0.004,-0.008" />
      <path
         id="svg_201"
         fill-rule="nonzero"
         fill="#b4450d"
         d="m 452.66439,380.98142 -58.47656,37.62109 49.29687,13.29297 9.17969,-50.91406" />
      <path
         id="svg_202"
         fill-rule="nonzero"
         fill="#a73f0b"
         d="m 477.84536,317.75963 -58.47656,37.62109 -46.53906,-15.49219 105.01562,-22.1289" />
      <path
         id="svg_203"
         fill-rule="nonzero"
         fill="#b4450d"
         d="M 59.245824,266.70484 0.87864402,309.56031 69.757544,320.89625 59.249734,266.70484 h -0.0039" />
      <path
         id="svg_204"
         fill-rule="nonzero"
         fill="#a73f0b"
         d="M 59.245824,266.70484 0.87864402,309.56031 -11.660426,277.12281 59.249734,266.70484 h -0.0039" />
      <path
         id="svg_205"
         fill-rule="nonzero"
         fill="#b4450d"
         d="m 142.25367,323.38207 -68.816403,7.83203 57.121093,16.375 11.69531,-24.19922 v -0.008" />
      <path
         id="svg_206"
         fill-rule="nonzero"
         fill="#a73f0b"
         d="m 138.57395,319.02906 -68.816406,7.83203 -10.50781,-54.19141 79.324216,46.36719 v -0.008" />
      <path
         id="svg_207"
         fill-rule="nonzero"
         fill="#b4450d"
         d="m 148.12661,327.28625 -10.80468,32.95703 31.75,-24.81641 -20.94532,-8.14062" />
      <path
         id="svg_209"
         fill-rule="nonzero"
         fill="#94390b"
         d="m 265.00968,302.62115 -69.63281,33.55859 64.98046,23.58203 4.64844,-57.14062 h 0.004" />
      <path
         id="svg_210"
         fill-rule="nonzero"
         fill="#802f07"
         d="m 250.36584,300.18284 -69.63281,33.55859 -20.94532,-8.14062 90.57422,-25.41797 h 0.004" />
      <path
         id="svg_211"
         fill-rule="nonzero"
         fill="#94390b"
         d="m 321.25527,355.26878 -63.42969,41.63281 72.44922,-10.54297 -9.01953,-31.08984" />
      <path
         id="svg_212"
         fill-rule="nonzero"
         fill="#802f07"
         d="m 337.13401,334.10755 -63.42969,41.63281 4.64844,-57.14062 58.78125,15.50781" />
      <path
         id="svg_213"
         fill-rule="nonzero"
         fill="#94390b"
         d="m 348.83995,417.4603 -23.54297,34.58984 31.77344,17.61719 -8.23047,-52.20703" />
      <path
         id="svg_214"
         fill-rule="nonzero"
         fill="#802f07"
         d="m 381.87374,347.15555 -23.54297,34.58984 -9.01953,-31.08984 32.5625,-3.5" />
      <path
         id="svg_215"
         fill-rule="nonzero"
         fill="#94390b"
         d="m 396.4794,442.87376 -44.85156,73.36719 22.65625,-23.33203 22.19141,-50.03516 h 0.004" />
      <path
         id="svg_217"
         fill-rule="nonzero"
         fill="#94390b"
         d="m 450.95022,452.51093 -45.67969,46.625 53.67969,5.01563 -8,-51.64063" />
      <path
         id="svg_219"
         fill-rule="nonzero"
         fill="#94390b"
         d="m 12.541173,330.33419 12.48828,68.61719 60.71484,-29.46485 -73.20312,-39.14453 v -0.008" />
      <path
         id="svg_221"
         fill-rule="nonzero"
         fill="#94390b"
         d="m 67.094991,331.55326 4.32422,27.80859 -73.20312,-39.14453 68.8789,11.33594" />
      <path
         id="svg_222"
         fill-rule="nonzero"
         fill="#802f07"
         d="m 132.75378,354.6012 3.51172,53.85156 38.83203,16.41406 -42.34765,-70.26562 h 0.004" />
      <path
         id="svg_223"
         fill-rule="nonzero"
         fill="#94390b"
         d="m 128.18219,351.24851 3.51172,53.85156 -60.63672,-70.22656 57.1211,16.375 h 0.004" />
      <path
         id="svg_224"
         fill-rule="nonzero"
         fill="#802f07"
         d="m 189.06835,357.76505 10.60156,95.08203 36.0246,-42.73822 -46.62225,-52.34381 h -0.004"
         sodipodi:nodetypes="ccccc" />
      <path
         id="svg_226"
         fill-rule="nonzero"
         fill="#802f07"
         d="m 249.31693,419.28905 -10.73438,28.44921 48.57813,22.66797 -37.83985,-51.125 -0.004,0.008" />
      <path
         id="svg_227"
         fill-rule="nonzero"
         fill="#94390b"
         d="m 258.43153,375.3268 -10.73438,28.44921 -54.24218,-52.03906 64.98046,23.58203 -0.004,0.008" />
      <path
         id="svg_230"
         fill-rule="nonzero"
         fill="#771f07"
         d="m 79.496508,380.63895 -65.66015,77.83985 76.878904,-6.22266 -11.226564,-71.61719 h 0.0078" />
      <path
         id="svg_231"
         fill-rule="nonzero"
         fill="#802106"
         d="m 75.38922,376.24851 -65.66015,77.83985 4.9375,-48.375 60.71484,-29.46485 h 0.0078" />
      <path
         id="svg_233"
         fill-rule="nonzero"
         fill="#802106"
         d="m 148.75414,426.72441 -45.07813,29.19141 -11.226561,-71.61719 56.312501,42.41797 -0.008,0.008" />
      <path
         id="svg_235"
         fill-rule="nonzero"
         fill="#802106"
         d="m 193.26877,465.29318 -57.93359,26.19141 19.10156,-42.60547 38.83203,16.41406" />
      <path
         id="svg_236"
         fill-rule="nonzero"
         fill="#771f07"
         d="m 226.67128,435.8206 -65.42578,72.95313 50.5,-26.31641 14.92187,-46.63672 h 0.004" />
      <path
         id="svg_238"
         fill-rule="nonzero"
         fill="#771f07"
         d="m 340.81804,496.10831 -63.5,23.96875 14.92187,-46.63672 48.57813,22.66797" />
      <path
         id="svg_239"
         fill-rule="nonzero"
         fill="#802106"
         d="m 86.607754,472.49542 -56.191399,46.06641 92.617175,5.86718 -36.425776,-51.93359" />
    </g>
  </g>
</svg>
